<svg width="530" height="447" viewBox="0 0 530 447" fill="none" xmlns="http://www.w3.org/2000/svg">
<path d="M363.429 41.4751C370.092 46.1395 379.702 45.9717 390.407 39.7789C422.83 21.0416 438.503 -33.2269 415.885 -46.2131H415.973C407.148 -51.3281 407.483 -51.2751 403.733 -51.9554C384.874 -55.5155 364.153 -33.112 355.266 -15.0726C348.418 -1.14991 343.458 19.6811 351.842 32.632C354.948 37.4202 355.372 36.9255 364.594 42.2878C364.206 42.067 363.826 41.7578 363.429 41.4751Z" fill="#8848A1"/>
<path d="M390.407 39.7789C370.392 51.3517 354.11 42.0581 354.048 19.0186C353.986 -4.02103 370.154 -32.0696 390.169 -43.6336C410.184 -55.1975 426.483 -45.9216 426.545 -22.882C426.607 0.157543 410.44 28.2061 390.407 39.7789Z" fill="url(#paint0_linear_45_109)"/>
<path d="M370.771 -4.44507L402.541 -22.7849C403.503 -26.8839 403.424 -26.7161 404.068 -29.3133C404.372 -30.6045 405.162 -31.7281 406.274 -32.4495C406.574 -32.6261 410.81 -35.0997 411.146 -35.1881C411.362 -35.2472 411.592 -35.2219 411.79 -35.1174L415.134 -33.165C416.105 -32.6085 415.399 -30.3204 414.058 -29.5342L410.184 -27.2991C409.089 -22.6258 404.209 -1.73296 403.124 2.89616C404.377 4.08877 404.686 6.26198 403.847 8.40869C403.194 10.1399 402.019 11.6249 400.485 12.6579L403.256 14.2746H403.159C403.522 14.5025 403.81 14.8331 403.986 15.2246C404.162 15.6161 404.218 16.0509 404.147 16.4743C404.057 17.4988 403.736 18.4894 403.209 19.3722C402.681 20.2549 401.961 21.0068 401.103 21.5716C400.798 21.8119 400.43 21.9596 400.044 21.9972C399.658 22.0348 399.269 21.9607 398.923 21.7837L395.57 19.8401C394.431 19.1687 394.555 17.4107 395.005 16.1209C394.767 16.2535 379.049 25.0081 378.793 25.0788L381.706 26.775H381.609C381.973 27.0021 382.261 27.3325 382.437 27.7242C382.613 28.116 382.669 28.5512 382.597 28.9747C382.506 29.9992 382.185 30.9898 381.658 31.8725C381.131 32.7553 380.411 33.5072 379.552 34.072C379.247 34.3123 378.88 34.46 378.493 34.4976C378.107 34.5352 377.718 34.4611 377.373 34.284L374.028 32.3317C372.501 31.4483 373.004 28.215 374.963 26.0859C375.571 25.3553 376.413 24.8587 377.346 24.6813C377.425 24.6813 374.813 23.1706 374.699 23.1265C373.816 22.5876 374.416 20.3525 375.775 19.5928C384.309 14.7781 390.61 11.2356 393.557 9.67198L377.593 16.5096C377.367 16.6292 377.113 16.6865 376.857 16.6756C376.601 16.6647 376.353 16.5861 376.137 16.4478L376.234 16.5185L372.881 14.575C372.717 14.466 372.577 14.3242 372.471 14.1584C372.364 13.9927 372.294 13.8066 372.263 13.612C369.006 -1.91848 369.386 0.528587 369.386 -2.03333C369.411 -2.51606 369.55 -2.98602 369.791 -3.40506C370.031 -3.8241 370.367 -4.18042 370.771 -4.44507ZM396.205 1.52685L396.885 1.24416L397.882 -3.0581L396.196 -2.0775L396.205 1.52685ZM396.205 -9.48055L399.92 -11.6273L400.529 -14.2245L396.196 -11.7244L396.205 -9.48055ZM387.151 5.4404L389.683 4.30962V1.65937L387.124 3.13467L387.151 5.4404ZM387.151 -4.21538L389.683 -5.72602V-7.96991L387.124 -6.4946L387.151 -4.21538ZM377.99 9.37162L380.691 8.21434V6.89804L377.814 8.55887L377.99 9.37162ZM376.402 1.99506L380.664 -0.469677V-2.74889L375.978 -0.0367966L376.402 1.99506Z" fill="#8848A1"/>
<path d="M401.076 14.4778L400.917 14.5749C400.103 15.1494 399.424 15.894 398.925 16.7574C398.427 17.6207 398.122 18.5821 398.032 19.5751C397.952 21.6511 399.355 22.5169 401.103 21.5098L401.262 21.4126C402.077 20.8391 402.757 20.0946 403.255 19.2311C403.754 18.3676 404.058 17.4057 404.147 16.4125C404.227 14.3364 402.824 13.4707 401.076 14.4778Z" fill="white"/>
<path d="M379.526 26.934L379.367 27.0312C378.551 27.6057 377.87 28.3515 377.371 29.2166C376.873 30.0818 376.569 31.0454 376.481 32.0402C376.402 34.1162 377.814 34.9819 379.552 33.9748L379.711 33.8777C380.527 33.3054 381.209 32.5613 381.707 31.6975C382.206 30.8337 382.509 29.8712 382.597 28.8775C382.676 26.7926 381.273 25.9269 379.526 26.934Z" fill="white"/>
<path d="M374.116 -2.51037C373.712 -2.24515 373.375 -1.8889 373.133 -1.47012C372.891 -1.05135 372.75 -0.581654 372.722 -0.098629V1.81839L375.299 13.8506L375.643 15.4319C375.673 15.6482 375.756 15.8536 375.884 16.0298C376.013 16.206 376.184 16.3473 376.381 16.4411C376.578 16.5348 376.795 16.5781 377.013 16.5669C377.23 16.5558 377.442 16.4905 377.628 16.3771L399.197 7.15424C399.331 7.0719 399.486 7.02968 399.644 7.03254C399.802 7.03539 399.956 7.08321 400.087 7.17037C400.219 7.25754 400.323 7.38043 400.387 7.52466C400.451 7.66888 400.473 7.82845 400.45 7.98465C400.45 8.76206 400.035 9.75149 398.155 10.8558L397.652 11.1208C395.102 12.4459 388.448 16.1828 379.173 21.4215C378.732 21.7026 378.364 22.0849 378.1 22.5365C377.836 22.9882 377.684 23.4963 377.655 24.0187C377.655 24.964 378.317 25.3439 379.137 24.9021C387.133 20.4144 392.375 17.5874 395.967 15.5291C401.262 12.4459 402.797 11.112 403.838 8.41753C404.721 6.27082 404.368 4.09761 403.115 2.90499C404.165 -1.72413 409.045 -22.617 410.175 -27.2903L414.049 -29.5253C414.493 -29.8165 414.863 -30.2081 415.128 -30.6684C415.393 -31.1287 415.546 -31.645 415.576 -32.1756C415.576 -33.1474 414.879 -33.5361 414.031 -33.059L409.619 -30.5059C408.508 -29.7798 407.718 -28.6538 407.413 -27.361C406.813 -24.7725 406.848 -24.9316 405.895 -20.8413L374.116 -2.51037ZM396.178 -5.61117V-11.7333L404.906 -16.7776L403.247 -9.71024L396.187 -5.62884L396.178 -5.61117ZM377.117 5.44041L375.952 -0.0102882L383.974 -4.64824V1.47386L377.117 5.44041ZM396.214 4.92802V-2.05099L402.303 -5.58467L400.247 3.24952L396.231 4.96336L396.214 4.92802ZM387.159 8.80623V3.14352L393.054 -0.257645V6.25315L387.151 8.77973L387.159 8.80623ZM387.159 -0.345993V-6.49459L393.054 -9.90459V-3.78249L387.159 -0.372494V-0.345993ZM378.652 12.4636L377.814 8.58538L383.991 4.98986V10.1579L378.608 12.4636H378.652Z" fill="white"/>
<path d="M0.0265198 1.07631C0.211853 6.18247 1.42972 7.94049 34.6115 50.592C34.6115 50.592 68.2346 94.0386 87.6583 127.874C88.5408 129.411 89.2292 130.709 89.6969 131.708C94.9477 143.148 93.4828 179.668 93.4828 179.668C93.4828 179.668 93.9152 188.132 92.9886 209.607C92.0619 231.083 97.5775 285.484 97.5775 285.484L100.084 286.642L189.516 327.942L216.07 340.689C216.07 340.689 229.237 302.817 251.035 286.518C272.832 270.219 349.971 234.732 349.971 234.732C349.971 234.732 403.521 273.373 420.862 280.988C438.203 288.603 442.042 291.492 451.052 282.684C460.062 273.876 455.676 266.049 455.676 266.049C455.676 266.049 439.712 256.208 429.802 246.508C429.51 246.225 429.21 245.934 428.919 245.625C419.388 235.907 411.269 221.728 411.269 221.728C411.269 221.728 401.703 214.802 388.51 204.625C375.316 194.448 346.238 166.779 335.56 159.164C324.882 151.549 295.689 127.414 279.689 113.456C261.801 97.8461 256.303 99.5334 247.743 95.1428C245.221 93.7043 242.801 92.0957 240.498 90.3282C220.085 74.4266 193.655 14.6898 193.655 14.6898C185.263 -4.23899 175.871 -22.7079 165.521 -40.6388C164.638 -41.1953 163.323 -42.0257 161.7 -43.024C148.462 -51.1603 103.005 -76.4879 58.4477 -61.5758C31.0462 -52.4147 -0.997162 -26.239 0.0265198 1.07631Z" fill="#FFCFCD"/>
<path d="M437.038 258.169C451.026 268.072 458.703 266.367 458.703 266.367C458.703 266.367 439.712 256.199 429.802 246.499C429.51 246.216 429.21 245.925 428.919 245.616C426.881 248.469 429.555 252.869 437.038 258.169Z" fill="#F688A6"/>
<g style="mix-blend-mode:multiply" opacity="0.5">
<path d="M437.206 286.712C410.281 269.503 389.26 255.519 374.769 245.731C368.777 241.684 364.559 238.804 359.343 235.35C357.684 234.255 354.931 233.831 353.28 231.393C351.215 228.283 351.842 224.219 352.68 221.277C349.883 222.885 345.735 224.608 341.208 223.76C337.175 223 334.774 220.553 332.03 218.265C327.097 214.148 327.52 215.968 313.497 207.752C293.606 196.118 292.053 192.063 291.532 190.031C290.341 185.331 292.309 182.23 289.997 180.313C287.031 177.831 282.628 182.001 274.871 181.63C268.367 181.329 266.434 178.149 259.295 175.446C254.529 173.679 247.266 171.991 237.029 173.396C235.026 166.656 232.123 159.058 228.928 159.173C225.036 159.306 223.633 171.037 221.25 176.594C214.737 191.612 118.881 232.912 111.741 250.872C108.653 258.584 110.276 266.332 111.741 271.04L231.478 207.311L437.206 286.712Z" fill="#FFCFCD"/>
</g>
<path d="M373.587 430.772C386.145 436.629 404.756 436.231 416.591 429.393C525.588 366.414 522.234 368.632 525.067 366.008C527.264 364.106 528.859 361.604 529.656 358.808C530.106 357.041 529.991 356.644 529.965 347.244V347.288C530 342.465 526.85 337.695 520.584 334.072L270.838 188.856C258.271 181.541 237.832 181.541 225.177 188.856L121.308 248.928C114.76 252.71 111.6 257.71 111.803 262.674V262.259V271.093C111.803 275.855 114.945 280.608 121.193 284.239C361.338 423.89 374.831 431.355 373.587 430.772Z" fill="url(#paint1_linear_45_109)"/>
<path d="M416.564 420.559C403.918 427.865 383.479 427.865 370.913 420.559L121.167 275.343C108.6 268.028 108.662 256.181 121.308 248.84L225.177 188.768C237.832 181.453 258.271 181.453 270.838 188.768L520.584 334.072C533.151 341.387 533.089 353.243 520.443 360.575L416.564 420.559Z" fill="url(#paint2_linear_45_109)"/>
<path d="M412.813 416.867C403.009 422.529 387.106 422.529 377.364 416.867L127.582 271.641C117.875 265.978 117.875 256.756 127.706 251.084L231.575 191.056C241.38 185.393 257.283 185.393 267.016 191.056L516.763 336.281C526.47 341.944 526.47 351.167 516.648 356.838L412.813 416.867Z" fill="url(#paint3_linear_45_109)"/>
<path d="M355.266 436.956C355.425 439.005 355.01 446.178 345.285 446.947C335.56 447.716 324.052 438.996 324.052 438.996L351.41 430.029C351.41 430.029 354.728 430.295 355.266 436.956Z" fill="#F688A6"/>
<path d="M290.482 398.465C299.466 412.6 303.534 422.697 315.713 432.998C319.68 436.408 324.144 439.194 328.95 441.258C359.264 453.935 356.705 428.121 351.895 418.289C349.247 412.785 344.95 408.165 340.37 405.859C333.501 402.468 326.157 400.141 318.59 398.96L312.174 395.223C312.033 395.152 304.929 391.009 304.726 390.894L290.482 398.465Z" fill="#FFCFCD"/>
<g style="mix-blend-mode:multiply" opacity="0.5">
<path d="M290.482 398.465C299.483 412.6 303.543 422.706 315.713 432.998C319.68 436.408 324.144 439.194 328.95 441.258C343.246 447.239 350.209 444.677 353.086 439.288C347.046 440.458 340.825 440.313 334.845 438.864C333.08 438.413 311.212 432.627 309.773 417.723C308.891 408.403 316.471 400.938 318.598 398.986C318.431 398.871 312.341 395.355 312.183 395.249L304.734 390.92L290.482 398.465Z" fill="#FFCFCD"/>
</g>
<path d="M210.078 394.852C210.078 394.852 210.343 395.788 210.89 397.299C212.849 402.741 218.382 415.656 227.904 419.481C230.605 420.559 232.184 420.365 250.408 417.918L268.879 415.48C272.541 414.094 276.121 412.498 279.601 410.7C282.142 409.384 284.543 408.05 286.811 406.592C293.662 402.3 299.999 397.234 305.696 391.495L305.864 391.327C307.691 382.024 304.646 376.583 303.631 374.975C294.85 361.026 269.99 366.679 266.399 369.082C266.266 369.18 265.322 369.824 263.972 370.62C262.264 371.613 260.496 372.498 258.677 373.27L256.532 362.898L247.981 357.925H247.919L214.437 390.611L211.993 393.005L210.078 394.852Z" fill="#FFCFCD"/>
<path d="M272.559 393.774C272.143 394.155 271.795 394.603 271.526 395.099C271.129 395.827 270.921 396.642 270.921 397.471C270.921 398.3 271.129 399.116 271.526 399.843C273.035 402.626 276.548 405.983 284.711 406.566C285.413 406.61 286.117 406.61 286.82 406.566C293.667 402.281 300 397.224 305.696 391.495L305.864 391.327C302.581 391.901 297.842 392.148 293.306 389.843C290.014 388.173 290.041 386.795 287.429 386.256C282.107 385.161 276.927 389.834 272.559 393.774Z" fill="#F688A6"/>
<g style="mix-blend-mode:multiply" opacity="0.5">
<path d="M210.078 394.852C210.078 394.852 210.343 395.788 210.89 397.299C212.849 402.741 218.382 415.656 227.904 419.481C231.196 420.798 232.493 420.25 268.879 415.48C268.879 415.48 227.904 419.481 225.848 412.229C225.592 411.345 225.292 410.329 224.966 409.287C223.715 405.453 223.468 401.362 224.249 397.406C225.029 393.449 226.81 389.759 229.422 386.689C229.828 386.202 230.27 385.747 230.746 385.328C236.752 380.321 243.985 377.009 251.697 375.735C249.571 377.655 247.884 380.012 246.752 382.645C245.621 385.279 245.071 388.125 245.14 390.991C245.431 389.101 249.102 382.431 251.961 379.957C255.103 377.254 258.721 373.296 258.721 373.296L256.577 362.925L248.016 357.951C237.647 369.1 234.991 372.899 232.29 376.344C225.725 384.728 218.135 387.025 210.078 394.852Z" fill="#FFCFCD"/>
</g>
<path d="M154.719 360.787C154.719 360.787 155.504 363.437 156.722 367.351C159.829 377.351 165.75 395.62 168.768 399.419C170.463 401.557 171.848 403.174 173.79 404.198C176.552 405.665 180.4 406.619 189.013 404.64C192.228 403.923 195.385 402.963 198.455 401.769C214.561 395.028 225.698 383.827 228.187 381.247C233.393 375.876 232.687 375.399 238.424 369.851C241.404 366.934 244.176 363.811 246.719 360.504C247.535 359.402 248.263 358.239 248.899 357.024C250.364 354.259 250.955 353.137 251.052 351.723C251.343 345.46 240.074 330.609 216.838 339.064L202.771 330.018L190.663 322.27L182.359 332.306L178.493 336.29L174.919 339.974L174.663 340.239L174.372 340.539L161.364 353.958L160.376 354.974L154.719 360.787Z" fill="#FFCFCD"/>
<path d="M222.362 361.936C221.845 362.843 221.629 363.891 221.745 364.929C221.861 365.967 222.303 366.942 223.007 367.713C224.679 369.57 226.852 370.905 229.263 371.556C231.864 372.219 234.605 372.068 237.118 371.123C241.151 367.165 246.207 361.997 248.872 356.988C250.187 354.506 250.885 353.207 251.008 351.9C248.756 352.97 246.254 353.402 243.774 353.148C241.293 352.894 238.93 351.964 236.941 350.46C236.259 349.956 235.433 349.685 234.585 349.685C233.737 349.685 232.911 349.956 232.229 350.46C231.178 351.237 230.305 351.962 229.581 352.58C226.753 355.349 224.324 358.497 222.362 361.936Z" fill="#F688A6"/>
<g style="mix-blend-mode:multiply" opacity="0.5">
<path d="M154.719 360.787C156.484 366.671 164.965 394.622 168.769 399.419C170.463 401.557 171.848 403.174 173.79 404.198C176.552 405.665 180.4 406.61 189.013 404.64C192.225 403.909 195.38 402.949 198.456 401.769C195.746 402.652 185.986 405.303 177.576 400.108C172.687 397.104 170.189 392.643 167.683 388.155C165.015 383.369 163.162 378.171 162.203 372.775C161.63 370.375 161.879 367.852 162.909 365.611C163.695 364.007 164.729 362.537 165.971 361.255C168.045 359.25 170.181 358.693 171.345 357.925C174.838 355.536 177.647 352.274 179.491 348.463C182.077 350.787 184.539 353.455 185.227 355.619C188.881 367.192 189.569 371.37 190.09 371.362C191.334 371.362 191.678 366.061 195.702 359.329C197.679 356.052 199.585 354.029 202.418 351.078C206.753 346.543 211.58 342.507 216.812 339.046L207.466 333.057C202.497 329.859 200.838 328.781 190.628 322.252C173.102 342.218 181.468 333.189 154.719 360.787Z" fill="#FFCFCD"/>
</g>
<g style="mix-blend-mode:multiply" opacity="0.5">
<path d="M202.745 330L199.32 342.173C199.32 342.173 201.024 347.235 202.418 351.078C207.934 344.603 216.812 339.046 216.812 339.046L202.745 330Z" fill="#FFCFCD"/>
</g>
<path d="M97.5776 285.484L101.293 303.966C101.293 303.966 117.76 352.174 122.711 359.197C123.391 360.16 130.133 367.192 138.596 366.158C147.059 365.125 157.587 360.213 157.587 360.213C163.552 358.088 168.766 354.265 172.59 349.214C187.098 330.053 183.744 337.889 190.143 326.758C191.219 324.779 192.914 321.36 193.999 318.683C193.902 318.383 190.601 308.807 182.897 306.218C175.193 303.63 167.012 303.568 162.6 307.102L162.494 307.181L121.123 283.894C120.84 283.735 120.567 283.576 120.293 283.4C118.463 282.323 116.793 280.994 115.333 279.451C110.109 279.928 103.12 282.887 99.6515 284.495C98.3542 285.052 97.5776 285.484 97.5776 285.484Z" fill="#FFCFCD"/>
<path d="M179.199 340.822C183.612 335.442 188.492 332.359 194.034 318.683C185.977 323.542 181.909 321.113 178.961 319.302C178.183 318.826 177.262 318.639 176.36 318.775C175.458 318.911 174.632 319.36 174.028 320.044C169.73 324.903 165.847 329.134 163.438 331.705C163.082 332.084 162.806 332.532 162.628 333.021C162.449 333.51 162.371 334.03 162.398 334.55C162.425 335.07 162.557 335.579 162.786 336.046C163.015 336.514 163.336 336.93 163.729 337.27C165.818 339.083 168.32 340.354 171.014 340.97C173.709 341.586 176.514 341.529 179.182 340.804L179.199 340.822Z" fill="#F688A6"/>
<g style="mix-blend-mode:multiply" opacity="0.5">
<path d="M139.249 321.554C139.249 321.554 126.7 327.279 122.826 329.505C128.271 328.074 131.245 327.341 132.983 326.934C133.292 326.864 134.051 326.687 135.075 326.404C137.113 325.848 138.728 325.291 139.787 324.894C139.306 325.461 138.985 326.148 138.861 326.881C138.775 327.458 138.804 328.046 138.946 328.612C139.089 329.178 139.341 329.709 139.69 330.177C139.575 329.09 141.173 325.98 146.018 321.254C150.607 316.775 161.373 308.003 162.52 307.119L121.149 283.832C120.866 283.673 120.584 283.506 120.319 283.338C120.944 285.121 121.721 286.847 122.64 288.497C128.65 299.716 132.93 305.282 132.93 305.282C132.93 305.282 113.242 299.098 107.497 302.808C107.497 302.808 128.297 308.365 134.033 311.528C139.77 314.69 139.249 321.554 139.249 321.554Z" fill="#FFCFCD"/>
</g>
<g style="mix-blend-mode:multiply" opacity="0.5">
<path d="M238.027 89.1709L240.542 90.3635C240.542 90.3635 239.659 89.9218 238.027 89.1709Z" fill="#FFCFCD"/>
</g>
<g style="mix-blend-mode:multiply" opacity="0.5">
<path d="M0.017746 1.0763C0.211884 6.17363 1.42973 7.94048 34.6027 50.592C56.0209 78.1193 70.8733 98.6412 87.6583 127.865C88.5408 129.411 89.2291 130.709 89.688 131.708C89.8645 137.45 93.1033 143.554 93.5534 159.977C93.8446 170.534 93.4828 179.668 93.4828 179.668C93.4828 179.668 93.9064 188.132 92.9886 209.607C92.0708 231.083 97.5334 285.484 97.5334 285.484L101.249 303.966C101.249 303.966 117.725 352.174 122.667 359.197C123.346 360.16 130.097 367.192 138.552 366.158C122.755 359.515 126.365 357.43 112.033 324.991C106.512 312.734 102.477 299.859 100.013 286.642C99.8809 285.891 99.7573 285.158 99.6426 284.46C98.8526 279.906 98.457 275.292 98.46 270.669C103.331 243.447 105.36 215.792 104.514 188.149C103.755 165.269 103.764 151.77 112.192 135.904C122.261 116.946 138.922 107.634 149.636 101.777C185.315 82.3421 221.7 86.2203 237.665 88.9942L237.541 88.9412L237.374 88.8617C221.156 83.6645 204.392 80.3679 187.416 79.0381C174.895 78.1264 162.324 78.1264 149.804 79.0381C113.507 81.3085 113.021 87.6161 99.9956 84.3386C79.9276 79.3208 68.7288 61.2637 51.8908 34.1339C41.9803 18.303 40.436 10.4936 41.0979 3.41737C42.2981 -9.15369 50.5405 -18.8713 53.9293 -22.829C56.0561 -25.3291 60.8393 -31.8664 69.8849 -36.2658C108.441 -55.1003 164.647 -40.8331 165.468 -40.6388C159.617 -44.994 110.665 -80.269 58.4212 -61.5758C31.6287 -51.9819 -1.00595 -26.4422 0.017746 1.0763Z" fill="#FFCFCD"/>
</g>
<g style="mix-blend-mode:multiply">
<path d="M349.353 376.715L448.775 318.878L304.32 235.642L204.898 293.488L349.353 376.715Z" fill="#AAD9F0"/>
</g>
<path d="M425.813 299.398C432.308 296.562 439.986 313.754 433.808 317.287L428.672 320.247L420.88 302.269L425.813 299.398Z" fill="#5D5DB3"/>
<path d="M418.135 307.711C418.135 312.42 420.994 317.897 424.524 319.938C428.054 321.978 430.914 319.814 430.914 315.097C430.914 310.379 428.054 304.92 424.524 302.879C420.994 300.838 418.135 303.003 418.135 307.711Z" fill="#323A71"/>
<path d="M424.101 315.132C427.737 317.234 427.816 309.831 424.101 307.685C420.385 305.538 420.377 312.976 424.101 315.132Z" fill="white"/>
<path d="M423.439 306.315C423.651 305.618 424.771 302.411 426.351 297.207C426.865 298.124 427.607 298.892 428.506 299.435C429.406 299.978 430.43 300.279 431.48 300.306C432.53 300.334 433.569 300.088 434.495 299.593C435.421 299.098 436.203 298.37 436.764 297.481V307.906C432.493 310.353 430.366 311.784 426.174 313.162C423.845 313.93 421.55 312.455 423.439 306.315Z" fill="url(#paint4_linear_45_109)"/>
<path d="M431.522 300.344V310.945L436.764 307.941V297.517C436.764 299.045 434.452 300.344 431.522 300.344Z" fill="#A8BCF4"/>
<path d="M426.351 297.481C426.351 301.306 436.764 301.236 436.764 297.411C436.606 293.585 426.351 293.647 426.351 297.481Z" fill="#323A71"/>
<path d="M313.268 234.299C319.745 231.428 327.388 248.628 321.272 252.126L316.136 255.095L308.3 237.135L313.268 234.299Z" fill="#5D5DB3"/>
<path d="M305.59 242.612C305.59 247.321 308.45 252.789 311.98 254.83C315.51 256.87 318.369 254.706 318.369 249.997C318.369 245.289 315.51 239.812 311.98 237.771C308.45 235.73 305.59 237.895 305.59 242.612Z" fill="#323A71"/>
<path d="M311.556 250.024C315.192 252.126 315.271 244.723 311.556 242.577C307.841 240.43 307.832 247.877 311.556 250.024Z" fill="white"/>
<path d="M310.894 241.216C311.106 240.51 312.227 237.303 313.807 232.099C314.32 233.016 315.063 233.784 315.962 234.327C316.861 234.87 317.886 235.171 318.936 235.198C319.985 235.226 321.024 234.98 321.951 234.485C322.877 233.99 323.659 233.262 324.22 232.373V242.806C319.949 245.245 317.822 246.676 313.63 248.054C311.3 248.822 309.006 247.347 310.894 241.216Z" fill="url(#paint5_linear_45_109)"/>
<path d="M318.978 235.236V245.837L324.22 242.842V232.373C324.22 233.946 321.908 235.236 318.978 235.236Z" fill="#A8BCF4"/>
<path d="M313.789 232.373C313.789 236.198 324.202 236.128 324.202 232.311C324.061 228.477 313.789 228.548 313.789 232.373Z" fill="#323A71"/>
<path d="M321.237 232.629C321.635 233.322 322.199 233.905 322.878 234.326L372.501 263.01L376.843 260.484L327.22 231.799C325.138 230.598 324.017 227.029 325.552 226.154L321.211 228.681C320.107 229.308 320.443 231.287 321.237 232.629Z" fill="#C9D8FF"/>
<path d="M352.618 204.351C311.309 227.921 317.522 224.361 311.732 227.726C353.016 204.157 346.803 207.743 352.618 204.351Z" fill="#636465"/>
<path d="M350.236 203.494L354.578 200.968L331.8 187.805L327.459 190.331L350.236 203.494Z" fill="url(#paint6_linear_45_109)"/>
<path d="M377.011 265.616L381.353 263.09L361.135 209.289L356.793 211.816L377.011 265.616Z" fill="#EFF3FF"/>
<path d="M431.646 267.339L435.794 264.547L359.608 203.883L355.266 206.41L431.646 267.339Z" fill="#C9D8FF"/>
<path d="M351.357 196.657L355.698 194.139L320.884 95.028L316.542 97.5546L351.357 196.657Z" fill="#EFF3FF"/>
<path d="M433.04 298.002L437.338 295.476C437.435 295.803 437.479 296.032 437.479 296.032C437.744 297.517 437.259 298.365 436.72 298.683L432.378 301.2C433.049 300.838 433.552 299.743 433.04 298.002Z" fill="#EFF3FF"/>
<path d="M433.031 298.002L437.373 295.476L381.353 263.09L377.011 265.616L433.031 298.002Z" fill="url(#paint7_linear_45_109)"/>
<path d="M327.459 190.331L331.801 187.805L310.091 73.6316L305.749 76.1581L327.459 190.331Z" fill="#EFF3FF"/>
<path d="M355.266 206.409L359.608 203.883L359.837 128.245L355.496 130.762L355.266 206.409Z" fill="#EFF3FF"/>
<path d="M301.24 52.2616L314.389 91.3441L436.041 201.736L435.838 274.3L356.793 211.816L377.011 265.616L433.031 298.002C433.808 300.6 432.423 302.172 430.384 301.006L313.383 233.363C311.256 232.135 310.206 228.574 311.715 227.718L348.206 206.86L324.379 193.079C295.256 38.1269 298.486 54.5585 297.692 52.2086L301.24 52.2616ZM316.551 97.528L351.357 196.665L351.489 132.821L316.551 97.528ZM431.911 267.507L432.096 203.371L415.276 188.644L415.179 254.167L431.911 267.507ZM410.978 250.819L410.722 184.669L396.964 172.619L396.858 239.564L410.978 250.819ZM392.657 236.216L392.384 168.617L378.484 156.505L378.379 224.829H378.308L392.657 236.216ZM374.187 221.481L373.904 152.45L355.46 136.319L355.266 206.401L374.187 221.481ZM321.237 228.681C319.728 229.564 320.787 233.098 322.905 234.334L372.528 263.019L352.857 210.65L321.237 228.681ZM327.476 190.331L350.236 203.503C305.387 75.7959 312.924 97.4927 305.749 76.1581L327.476 190.331Z" fill="#7994DD"/>
<path d="M378.379 156.373V224.785L382.8 222.373L382.562 160.03L378.379 156.373Z" fill="#EFF3FF"/>
<path d="M396.858 172.539V239.547L401.271 237.038L401.041 176.214L396.858 172.539Z" fill="#EFF3FF"/>
<path d="M415.179 188.564V254.167L419.591 251.605L419.362 192.239L415.179 188.564Z" fill="#EFF3FF"/>
<path d="M347.888 288.117L347.906 292.172L351.154 294.062L351.145 290.007L347.888 288.117Z" fill="#3A7378"/>
<path d="M351.145 290.007L351.154 294.062L414.729 257.321L414.72 253.266L351.145 290.007Z" fill="#7994DD"/>
<path d="M347.888 288.117L351.145 290.007L414.72 253.266L411.463 251.376L347.888 288.117Z" fill="#C9D8FF"/>
<path d="M325.349 276.12L325.358 280.175L328.615 282.066L328.597 278.011L325.349 276.12Z" fill="#3A7378"/>
<path d="M328.597 278.011L328.615 282.066L396.558 242.736L396.549 238.672L328.597 278.011Z" fill="#7994DD"/>
<path d="M325.349 276.12L328.597 278.011L396.549 238.672L393.293 236.781L325.349 276.12Z" fill="#C9D8FF"/>
<path d="M297.939 266.155L297.948 270.21L301.205 272.101L301.196 268.046L297.939 266.155Z" fill="#3A7378"/>
<path d="M301.196 268.046L301.204 272.101L377.779 227.832L377.761 223.778L301.196 268.046Z" fill="#7994DD"/>
<path d="M297.939 266.155L301.196 268.046L377.761 223.778L374.513 221.878L297.939 266.155Z" fill="#C9D8FF"/>
<path d="M227.269 154.765L227.278 158.829L230.534 160.719L230.525 156.664L227.269 154.765Z" fill="#3A7378"/>
<path d="M230.525 156.664L230.534 160.719L312.13 113.774L312.121 109.719L230.525 156.664Z" fill="#7994DD"/>
<path d="M227.269 154.765L230.525 156.664L312.121 109.719L308.864 107.829L227.269 154.765Z" fill="#EFF3FF"/>
<path d="M269.611 250.943L269.62 255.006L272.876 256.897L272.859 252.842L269.611 250.943Z" fill="#3A7378"/>
<path d="M272.859 252.842L272.876 256.897L354.472 209.952L354.463 205.897L272.859 252.842Z" fill="#7994DD"/>
<path d="M269.611 250.943L272.859 252.842L354.463 205.897L351.206 204.007L269.611 250.943Z" fill="#C9D8FF"/>
<path d="M242.818 235.527L242.827 239.591L246.084 241.481L246.075 237.426L242.818 235.527Z" fill="#3A7378"/>
<path d="M246.075 237.426L246.084 241.481L327.688 194.545L327.67 190.481L246.075 237.426Z" fill="#7994DD"/>
<path d="M242.819 235.527L246.075 237.426L327.67 190.481L324.414 188.591L242.819 235.527Z" fill="#C9D8FF"/>
<path d="M234.038 195.764L234.055 199.819L237.312 201.719L237.294 197.655L234.038 195.764Z" fill="#3A7378"/>
<path d="M237.294 197.655L237.312 201.719L318.907 154.774L318.898 150.719L237.294 197.655Z" fill="#7994DD"/>
<path d="M234.038 195.764L237.294 197.655L318.898 150.719L315.642 148.828L234.038 195.764Z" fill="#EFF3FF"/>
<path d="M375.705 299.381L375.714 304.407L379.623 306.678L379.605 301.651L375.705 299.381Z" fill="#3A7378"/>
<path d="M375.634 299.513L379.535 301.784L440.162 266.747L436.253 264.477L375.634 299.513Z" fill="#C9D8FF"/>
<path d="M297.692 52.2617L301.222 52.3235L314.362 91.3971C329.568 105.205 410.854 178.953 426.289 192.99L428.601 188.626L318.731 88.8352L305.582 49.7616L302.052 49.6821L297.692 52.2617Z" fill="#C9D8FF"/>
<path d="M318.731 88.8441L314.389 91.353L301.248 52.2793L305.582 49.7616L318.731 88.8441Z" fill="#EFF3FF"/>
<path d="M216.908 100.355C219.159 99.2331 222.848 104.869 220.694 106.707L301.575 59.6647C302.157 59.3202 302.643 58.3219 302.14 56.6787C302 56.2265 301.81 55.791 301.575 55.3801C301.082 54.4614 300.318 53.7177 299.386 53.2511C299.03 53.0904 298.634 53.0381 298.248 53.1009C297.86 53.2334 232.952 91.0438 216.908 100.355Z" fill="#FEB42B"/>
<path d="M220.694 106.707L301.575 59.6647C302.157 59.3202 302.643 58.3219 302.14 56.6787C302 56.2265 301.81 55.791 301.575 55.3801C301.082 54.4614 300.318 53.7177 299.386 53.2511C299.03 53.0904 298.634 53.0381 298.248 53.1009C298.636 53.4571 298.959 53.8787 299.201 54.3465C299.436 54.7574 299.626 55.1929 299.766 55.6451C300.269 57.2883 299.766 58.2954 299.201 58.6311L221.197 104.004C221.386 104.454 221.438 104.95 221.349 105.43C221.259 105.91 221.032 106.354 220.694 106.707Z" fill="#FFC52C"/>
<path d="M218.7 100.576C217.244 99.7366 216.052 100.417 216.052 102.086C216.103 103 216.369 103.889 216.829 104.68C217.29 105.471 217.931 106.141 218.7 106.636C220.156 107.475 221.347 106.795 221.347 105.125C221.295 104.212 221.028 103.324 220.568 102.533C220.108 101.743 219.468 101.072 218.7 100.576Z" fill="#61A5AB"/>
<path d="M318.263 124.517L317.822 209.272L310.347 199.183L314.477 119.455L318.263 124.517Z" fill="#5D9753"/>
<path d="M329.285 125.197L333.274 210.235L317.822 209.272L318.263 124.517L329.285 125.197Z" fill="#75BD69"/>
<path d="M314.477 119.455C314.221 124.49 313.374 140.657 310.347 199.183L253.779 233.53L260.504 149.65L314.477 119.455ZM290.261 143.104C292.547 143.908 295.901 139.331 294.956 136.717C292.697 135.93 289.352 140.418 290.261 143.104ZM277.721 150.719C280.007 151.523 283.36 146.947 282.416 144.332C280.148 143.545 276.812 148.033 277.721 150.719Z" fill="#5D9753"/>
<path d="M269.823 152.062L269.373 236.817L250.24 234.131L256.965 150.242L269.823 152.062Z" fill="#75BD69"/>
<path d="M272.682 160.481L273.97 250.059L269.373 236.817L269.823 152.062L272.682 160.481Z" fill="#5D9753"/>
<path d="M333.054 124.366L337.475 213.185L273.971 250.059L272.682 160.481L333.054 124.366Z" fill="#9CE090"/>
<path d="M333.053 124.366L272.682 160.481L269.823 152.062L256.965 150.242L315.059 117.555L319.525 123.518L333.053 124.366ZM329.276 125.197L318.263 124.517L314.477 119.455L260.486 149.65L271.385 151.205L273.75 158.21C304.134 140.127 324.158 128.236 329.276 125.197ZM296.712 129.384L293.429 131.222C293.376 130.771 293.332 130.338 293.279 129.808L296.58 127.953C296.624 128.43 296.677 128.907 296.712 129.384Z" fill="#75BD69"/>
<path d="M293.28 129.808L290.385 131.443C289.666 124.263 289.625 117.031 290.261 109.843C291.459 110.725 292.42 111.891 293.059 113.235C292.731 118.758 292.804 124.297 293.28 129.808Z" fill="#ACE5A2"/>
<path d="M313.586 154.102C311.927 155.065 310.612 154.261 310.621 152.406C310.621 149.606 313.462 146.222 315.448 146.964C317.592 147.671 316.436 152.486 313.586 154.102Z" fill="#75BD69"/>
<path d="M310.753 153.351C309.871 150.657 313.198 146.178 315.448 146.964C316.392 149.579 313.048 154.146 310.753 153.351Z" fill="#5D9753"/>
<mask id="mask0_45_109" style="mask-type:luminance" maskUnits="userSpaceOnUse" x="226" y="55" width="111" height="104">
<path d="M273.75 158.192L271.385 151.187L260.486 149.65L226.642 86.45L336.998 55.5215L329.285 125.197L273.75 158.192Z" fill="white"/>
</mask>
<g mask="url(#mask0_45_109)">
<path d="M295.662 136.602C296.226 139.327 297.193 141.953 298.53 144.393L298.742 144.738C299.282 145.614 300.02 146.353 300.895 146.894C301.179 147.055 301.474 147.197 301.778 147.318C302.3 147.537 302.864 147.639 303.43 147.616C303.995 147.593 304.549 147.446 305.052 147.185C305.247 147.089 305.428 146.967 305.59 146.823C305.793 146.655 306.305 146.16 306.314 145.939C306.436 146.444 306.754 146.879 307.196 147.15C307.379 147.263 307.583 147.335 307.796 147.362C308.944 147.565 309.932 148.077 311.45 147.538C311.811 147.422 312.157 147.265 312.482 147.07C312.886 146.835 313.249 146.536 313.559 146.187C314.817 144.485 315.933 142.683 316.895 140.798C317.803 138.92 318.553 136.97 319.136 134.967C319.237 134.59 319.313 134.206 319.366 133.819C319.662 131.85 319.232 129.84 318.157 128.165V128.121C318.124 128.062 318.085 128.005 318.042 127.953C317.098 126.469 315.015 126.054 313.277 126.186C313.056 125.365 310.629 123.721 308.211 123.827C306.897 123.917 305.635 124.373 304.566 125.144C303.812 124.654 302.979 124.298 302.104 124.092C301.828 124.037 301.547 124.016 301.266 124.031C300.432 124.09 299.619 124.317 298.876 124.7C298.133 125.083 297.475 125.612 296.942 126.257C294.541 128.934 294.753 133.095 295.662 136.602Z" fill="#FFE024"/>
<path d="M301.999 124.004C302.913 124.186 303.782 124.546 304.558 125.064C304.799 124.88 305.056 124.717 305.326 124.578C305.696 124.941 305.326 125.038 305.581 125.815C305.649 125.967 305.752 126.1 305.882 126.204C306.481 126.648 307.194 126.914 307.938 126.972C309.32 127.09 310.711 126.919 312.024 126.469L312.5 126.31C312.968 126.142 313.242 126.027 313.294 126.107C313.436 126.354 310.947 127.98 310.709 128.147C311.698 128.729 312.491 129.593 312.986 130.63C312.223 129.968 311.402 129.376 310.532 128.863C310.215 128.783 310.162 128.863 309.844 128.925C309.551 128.968 309.254 128.968 308.961 128.925C308.714 128.925 308.714 128.925 308.158 128.925C307.298 128.847 306.433 128.847 305.573 128.925C303.419 129.64 302.925 134.782 303.543 138.086C303.647 138.652 303.782 139.213 303.949 139.764C304.505 141.655 305.714 144.102 307.417 145.065C308.219 145.542 309.132 145.801 310.065 145.816C310.32 145.816 310.665 145.816 310.947 145.816C312.017 145.709 313.078 145.532 314.124 145.286C313.657 145.935 313.087 146.505 312.438 146.973L312.262 147.079C311.326 147.611 310.231 147.793 309.173 147.591C308.626 147.477 308.405 147.379 307.797 147.273C307.561 147.243 307.335 147.161 307.135 147.032C306.935 146.904 306.766 146.733 306.64 146.531C306.492 146.32 306.385 146.084 306.323 145.833C306.185 146.211 305.932 146.535 305.599 146.761C305.437 146.906 305.256 147.028 305.061 147.123C304.413 147.436 303.695 147.577 302.977 147.534C302.259 147.491 301.563 147.264 300.957 146.876L300.895 146.832C300.045 146.308 299.324 145.598 298.786 144.756L298.574 144.411C298.247 143.885 297.952 143.339 297.692 142.777C296.818 140.788 296.147 138.716 295.689 136.593C295.38 135.321 294.365 131.142 295.812 127.962C297.568 124.084 301.054 123.819 301.999 124.004ZM299.775 126.469C301.381 125.85 305.361 127.856 303.552 127.229C302.156 126.88 300.681 127.082 299.43 127.794C297.665 128.677 296.933 129.905 297.11 134.455C297.11 134.879 297.11 135.621 297.26 136.513C297.251 136.566 297.251 136.62 297.26 136.672C297.586 139.323 298.557 142.653 300.948 143.881C301.646 144.261 302.881 144.694 303.243 144.287C303.446 144.058 303.305 143.625 303.066 143.121C301.802 140.856 301.117 138.313 301.072 135.718C301.072 135.542 301.072 135.126 301.072 135.091C300.904 132.441 301.478 130.215 303.358 128.457C303.803 128.084 304.315 127.799 304.867 127.617C304.115 126.527 303.169 125.584 302.078 124.835L300.922 124.702C299.448 124.525 298.151 127.078 299.775 126.469Z" fill="#FFBE24"/>
<path d="M307.285 130.709C306.861 131.716 308.167 133.704 309.623 133.36C310.001 133.275 310.34 133.068 310.589 132.771C310.838 132.474 310.982 132.104 311 131.716C310.959 131.217 310.738 130.75 310.377 130.404C310.016 130.057 309.541 129.855 309.041 129.835C308.695 129.79 308.343 129.85 308.03 130.005C307.718 130.161 307.458 130.406 307.285 130.709Z" fill="#FFED74"/>
<path d="M313.48 128.81C313.48 129.163 313.833 129.216 314.486 129.914C315.368 130.877 315.368 131.434 315.818 131.487C316.269 131.54 317.098 130.7 317.195 129.844C317.222 129.556 317.191 129.267 317.104 128.992C317.017 128.717 316.876 128.462 316.689 128.242C316.503 128.022 316.274 127.842 316.017 127.712C315.76 127.582 315.479 127.505 315.192 127.485C314.336 127.511 313.445 128.236 313.48 128.81Z" fill="#FFED74"/>
<path d="M305.643 128.651C305.643 128.704 305.643 128.704 305.643 128.757C306.08 128.781 306.517 128.76 306.949 128.695C307.673 128.642 307.788 128.828 308.838 128.775C309.72 128.624 310.506 129.057 309.491 127.953C308.767 127.158 308.441 127.529 308.185 127.414C308.105 127.363 308.037 127.294 307.987 127.213C307.936 127.132 307.905 127.041 307.894 126.946C307.691 126.142 308.079 121.248 310.012 120.948C310.312 120.894 311.177 120.806 311.424 121.124C312.43 122.308 313.498 119.985 312.853 118.916C312.183 117.599 308.679 117.891 308.141 118.341C307.698 118.667 307.293 119.041 306.932 119.455C305.246 121.522 305.167 125.091 306.42 127.997C306.129 128.094 305.564 128.315 305.643 128.651Z" fill="#5FC433"/>
<path d="M305.643 128.651C305.643 128.704 305.643 128.704 305.643 128.757C306.08 128.781 306.517 128.76 306.949 128.695C307.743 128.741 308.539 128.741 309.332 128.695C308.961 127.812 307.7 127.688 307.232 127.14C306.83 126.618 306.544 126.017 306.392 125.376C306.239 124.734 306.225 124.068 306.349 123.421C306.386 122.634 306.597 121.864 306.968 121.169C307.339 120.473 307.86 119.87 308.494 119.402C309.143 119.01 309.87 118.767 310.624 118.691C311.378 118.615 312.139 118.706 312.853 118.96C312.183 117.644 308.679 117.935 308.141 118.386C307.698 118.711 307.293 119.085 306.932 119.499C305.246 121.566 305.167 125.135 306.42 128.041C306.129 128.094 305.564 128.315 305.643 128.651Z" fill="#3F8F1D"/>
<path d="M312.129 119.684C309.791 118.686 307.24 120.568 307.223 123.969C307.161 124.861 307.251 125.757 307.487 126.619C306.923 123.536 308.599 119.145 312.129 119.684Z" fill="#3F8F1D"/>
<path d="M299.589 175.472C300.551 176.824 307.461 185.605 317.319 184.695C327.176 183.785 331.703 171.444 324.202 163.193C320.284 158.89 312.897 154.517 309.2 152.229C305.22 149.72 304.337 148.051 303.755 146.045C301.937 139.729 303.287 136.045 300.939 132.079C298.592 128.112 294.533 126.858 291.885 127.661C289.123 128.545 286.767 131.593 285.937 134.208C281.313 146.646 291.726 164.827 299.589 175.472Z" fill="#5D5DB3"/>
<path d="M285.469 147.079C288.117 160.171 298.583 174.112 299.589 175.472C306.649 185.084 318.872 187.84 324.855 180.967C322.04 182.133 315.765 184.96 310.638 180.967C304.063 175.799 292.909 162.415 293.315 156.726C293.562 153.493 296.553 151.867 296.156 150.224C295.83 148.881 293.747 149.561 291.541 147.627C289.546 145.86 288.946 143.21 288.17 139.817C287.74 138.1 287.576 136.328 287.684 134.561C287.779 133.37 288.263 132.243 289.06 131.354C289.857 130.465 290.924 129.863 292.097 129.64C293.429 129.402 295.212 129.084 295.874 129.031C296.977 128.951 297.118 129.632 297.639 129.322C297.743 129.269 297.825 129.18 297.869 129.071C297.912 128.962 297.915 128.841 297.877 128.73C297.018 128.147 296.046 127.753 295.023 127.575C294.001 127.397 292.952 127.438 291.947 127.697C288.037 128.872 283.078 135.118 285.469 147.079Z" fill="#323A71"/>
<path d="M290.235 124.702C290.268 125.96 289.904 127.197 289.193 128.236C288.832 128.889 288.99 129.119 289.273 129.225C289.547 129.267 289.827 129.249 290.094 129.172C290.094 129.172 293.465 128.651 295.265 128.501C297.065 128.351 298.062 130.038 297.383 127.9C296.703 125.762 295.618 126.204 295.389 124.137C295.159 122.069 296.156 122.22 295.291 121.698C295.02 121.535 294.721 121.421 294.409 121.363C293.896 121.259 293.411 121.045 292.988 120.735C292.582 120.47 292.335 120.453 292.167 120.541C291.832 120.727 291.753 121.327 291.285 121.38C290.544 121.469 290.72 122.405 290.332 122.6C289.944 122.794 290.217 123.218 290.235 124.702Z" fill="#5FC433"/>
<path d="M290.235 124.702C290.268 125.96 289.904 127.197 289.193 128.236C288.832 128.889 288.99 129.119 289.273 129.225C290.073 128.764 290.84 128.248 291.567 127.679C291.567 127.679 291.003 125.214 290.941 124.269C290.879 123.324 290.773 122.935 291.17 122.423C291.567 121.91 291.709 122.114 292.053 121.345C292.229 120.93 292.282 120.735 292.229 120.541C291.894 120.727 291.814 121.327 291.347 121.38C290.605 121.469 290.782 122.405 290.394 122.599C290.005 122.794 290.217 123.218 290.235 124.702Z" fill="#3F8F1D"/>
<path d="M293.888 127.114C293.888 126.999 293.006 124.375 293.121 123.386C293.235 122.396 293.05 122.246 293.05 122.246C292.538 120.983 292.574 126.16 292.75 127.308C292.803 127.653 293.888 127.114 293.888 127.114Z" fill="#3F8F1D"/>
<path d="M296.139 127.732C295.651 127.321 295.297 126.774 295.124 126.16C294.78 124.976 294.4 124.393 294.294 123.739C294.188 123.085 293.827 122.856 293.888 124.004C293.998 124.967 294.175 125.92 294.418 126.858C294.638 127.918 296.139 127.732 296.139 127.732Z" fill="#3F8F1D"/>
<path d="M294.453 121.301C294.482 121.823 294.646 122.328 294.93 122.767C294.93 122.767 295.168 122.016 295.247 121.61C295 121.467 294.732 121.363 294.453 121.301Z" fill="#3F8F1D"/>
<path d="M293.138 120.744C293.076 121.239 293.076 121.804 293.376 121.981C293.503 121.674 293.583 121.349 293.615 121.018C293.491 120.948 293.324 120.859 293.138 120.744Z" fill="#3F8F1D"/>
<path d="M297.904 139.72C298.213 140.374 300.754 142.953 300.481 139.543C300.452 137.439 299.841 135.384 298.716 133.607C297.948 132.273 295.548 130.391 296.006 133.695C296.321 135.79 296.961 137.823 297.904 139.72Z" fill="#7978CD"/>
<path d="M302.087 156.947L298.38 160.41L298.76 157.927L296.156 158.935L297.621 156.867L295.724 154.668L297.877 154.632L299.757 154.597L302.087 156.947Z" fill="#CB550F"/>
<path d="M300.375 158.546L300.092 157.009L298.76 157.177L299.298 156.152L297.877 154.632L299.757 154.597L302.087 156.947L300.375 158.546Z" fill="#A6240D"/>
<path d="M321.969 112.626L321.502 114.393L320.769 117.113L320.698 117.387L318.933 117.325C318.81 117.184 318.227 116.071 317.636 114.923C316.957 113.571 316.259 112.166 316.259 112.166L317.848 113.218L318.995 111.716L319.578 114.013L321.969 112.626Z" fill="#A6240D"/>
<path d="M319.472 140.736C317.486 144.588 308.476 157.609 304.187 157.521C303.462 157.502 302.749 157.34 302.087 157.044C301.762 156.899 301.449 156.728 301.151 156.532C301.151 156.532 297.507 153.987 300.807 150.692C310.012 141.514 314.927 129.729 315.677 120.603C315.73 119.949 315.854 117.953 317.274 116.848C317.861 116.417 318.552 116.149 319.276 116.071C320 115.994 320.731 116.109 321.396 116.407C326.002 118.624 324.379 131.204 319.472 140.736Z" fill="#CB550F"/>
<path d="M301.187 153.396C301.187 153.396 308.67 148.978 313.674 138.077C318.678 127.176 318.086 118.068 318.086 118.068C317.609 120.922 316.984 123.75 316.215 126.54C314.921 131.857 312.926 136.978 310.285 141.77C307.828 146.064 304.763 149.98 301.187 153.396Z" fill="#E36E29"/>
<path d="M319.472 140.736C317.486 144.588 308.476 157.609 304.187 157.521C303.462 157.502 302.748 157.34 302.087 157.044V156.929C302.087 156.929 305.617 157.203 311.732 149.358C316.374 143.422 325.314 127.935 321.44 116.407C326.002 118.624 324.378 131.204 319.472 140.736Z" fill="#A6240D"/>
<path d="M316.207 148.625L313.991 152.936L313.762 150.701L311.909 152.539L312.632 150.233L310.647 149.102L312.359 148.254L313.841 147.521L316.207 148.625Z" fill="white"/>
<path d="M315.183 150.622L314.627 149.429L313.603 150.074L313.815 149.005L312.359 148.254L313.841 147.521L316.207 148.625L315.183 150.622Z" fill="white"/>
<path d="M315.183 150.622L314.627 149.429L313.603 150.074L313.815 149.005L312.359 148.254L313.841 147.521L316.207 148.625L315.183 150.622Z" fill="white"/>
<path d="M322.614 103.809V108.226L321.21 108.836C320.664 108.353 320.146 107.84 319.657 107.299L317.98 105.532L319.463 105.841L320.063 104.145L321.007 105.868L322.614 103.809Z" fill="white"/>
<path d="M322.614 103.809V108.226L321.21 108.836C320.664 108.353 320.146 107.84 319.657 107.299L317.98 105.532L319.463 105.841L320.063 104.145L321.007 105.868L322.614 103.809Z" fill="white"/>
<path d="M322.614 105.435V108.005L321.21 108.889C320.664 108.406 320.146 107.893 319.657 107.352L320.54 107.246L320.416 106.468L321.299 106.857L322.614 105.435Z" fill="white"/>
<path d="M322.614 105.435V108.005L321.21 108.889C320.664 108.406 320.146 107.893 319.657 107.352L320.54 107.246L320.416 106.468L321.299 106.857L322.614 105.435Z" fill="white"/>
<path d="M326.585 128.412C325.826 132.405 321.431 146.77 318.007 148.325C317.176 148.695 316.254 148.806 315.359 148.643C315.359 148.643 311.909 147.865 313.833 143.855C319.207 132.653 320.637 120.886 319.26 112.935C318.957 111.665 319.123 110.328 319.728 109.172C320.056 108.612 320.519 108.143 321.073 107.807C321.628 107.471 322.257 107.278 322.905 107.246C327.026 107.334 328.473 118.518 326.585 128.412Z" fill="white"/>
<path d="M326.585 128.412C325.826 132.405 321.431 146.77 318.007 148.325C317.176 148.695 316.254 148.806 315.359 148.643C315.359 148.643 311.909 147.865 313.833 143.855C319.207 132.653 320.637 120.886 319.26 112.935C318.957 111.665 319.123 110.328 319.728 109.172C320.056 108.612 320.519 108.143 321.073 107.807C321.628 107.471 322.257 107.278 322.905 107.246C327.026 107.334 328.473 118.518 326.585 128.412Z" fill="white"/>
<path d="M314.733 145.975C314.733 145.975 319.745 139.42 321.396 128.359C323.046 117.299 320.663 109.808 320.663 109.808C320.84 111.725 321.007 114.41 320.981 117.652C321.074 122.698 320.583 127.738 319.516 132.67C318.46 137.281 316.854 141.748 314.733 145.975Z" fill="white"/>
<path d="M314.733 145.975C314.733 145.975 319.745 139.42 321.396 128.359C323.046 117.299 320.663 109.808 320.663 109.808C320.84 111.725 321.007 114.41 320.981 117.652C321.074 122.698 320.583 127.738 319.516 132.67C318.46 137.281 316.854 141.748 314.733 145.975Z" fill="white"/>
<path d="M326.585 128.412C325.826 132.405 321.431 146.77 318.007 148.325C317.453 148.58 316.851 148.713 316.242 148.713V148.625C316.242 148.625 319.092 147.53 322.305 138.607C324.731 131.858 328.544 115.444 322.958 107.219C327.026 107.334 328.473 118.518 326.585 128.412Z" fill="white"/>
<path d="M326.585 128.412C325.826 132.405 321.431 146.77 318.007 148.325C317.453 148.58 316.851 148.713 316.242 148.713V148.625C316.242 148.625 319.092 147.53 322.305 138.607C324.731 131.858 328.544 115.444 322.958 107.219C327.026 107.334 328.473 118.518 326.585 128.412Z" fill="white"/>
<path d="M316.207 148.625L313.991 152.936L313.762 150.701L311.909 152.539L312.632 150.233L310.647 149.102L312.359 148.254L313.841 147.521L316.207 148.625Z" fill="#F49447"/>
<path d="M315.183 150.622L314.627 149.429L313.603 150.074L313.815 149.005L312.359 148.254L313.841 147.521L316.207 148.625L315.183 150.622Z" fill="#B74E1E"/>
<path d="M322.614 103.809V108.226L321.21 108.836C320.664 108.353 320.146 107.84 319.657 107.299L317.98 105.532L319.463 105.841L320.063 104.145L321.007 105.868L322.614 103.809Z" fill="#F4A769"/>
<path d="M322.614 105.435V108.005L321.21 108.889C320.664 108.406 320.146 107.893 319.657 107.352L320.54 107.246L320.416 106.468L321.299 106.857L322.614 105.435Z" fill="#B74E1E"/>
<path d="M326.585 128.412C325.826 132.405 321.431 146.77 318.007 148.325C317.176 148.695 316.254 148.806 315.359 148.643C315.359 148.643 311.909 147.865 313.833 143.855C319.207 132.653 320.637 120.886 319.26 112.935C318.957 111.665 319.123 110.328 319.728 109.172C320.056 108.612 320.519 108.143 321.073 107.807C321.628 107.471 322.257 107.278 322.905 107.246C327.026 107.334 328.473 118.518 326.585 128.412Z" fill="#F49447"/>
<path d="M314.733 145.975C314.733 145.975 319.745 139.42 321.396 128.359C323.046 117.299 320.663 109.808 320.663 109.808C320.84 111.725 321.007 114.41 320.981 117.652C321.074 122.698 320.583 127.738 319.516 132.67C318.46 137.281 316.854 141.748 314.733 145.975Z" fill="#FDD172"/>
<path d="M326.585 128.412C325.826 132.405 321.431 146.77 318.007 148.325C317.453 148.58 316.851 148.713 316.242 148.713V148.625C316.242 148.625 319.092 147.53 322.305 138.607C324.731 131.858 328.544 115.444 322.958 107.219C327.026 107.334 328.473 118.518 326.585 128.412Z" fill="#B74E1E"/>
<path d="M283.722 148.554C283.722 148.554 271.155 133.05 268.402 128.545C265.648 124.039 270.255 119.658 266.187 116.919C260.671 113.2 259.242 120.329 259.242 120.329C259.242 120.329 255.059 119.446 255.473 124.879C255.888 130.312 259.833 128.492 262.683 131.231C265.534 133.969 276.521 151.611 276.521 151.611L283.722 148.554Z" fill="white"/>
<path d="M255.465 124.914C255.879 130.356 259.824 128.527 262.683 131.275C265.543 134.022 276.521 151.646 276.521 151.646C285.805 147.706 284.146 151.187 276.459 139.446C275.553 138.839 274.497 138.492 273.408 138.446C272.318 138.399 271.236 138.653 270.282 139.181C267.502 134.985 264.678 130.895 263.425 129.693C260.574 126.955 256.629 128.81 256.215 123.342C256.149 122.648 256.185 121.949 256.321 121.266C255.72 121.928 255.323 123.05 255.465 124.914Z" fill="#EFF3FF"/>
<path d="M267.634 156.708C268.031 150.445 270.749 144.703 274.438 139.632C280.298 138.51 283.881 140.277 288.814 142.591C296.359 146.125 300.154 147.892 301.169 148.625C308.168 153.172 313.614 159.749 316.78 167.477C306.081 177.875 291.962 184.012 277.068 184.739C277.068 184.386 277.015 184.139 277.015 184.139C277.015 184.139 267.122 164.641 267.634 156.708Z" fill="#DE5148"/>
<path d="M264.025 161.011C262.304 152.786 265.384 142.37 274.438 139.632C272.948 142.325 271.795 145.191 271.005 148.166C269.708 153.077 270.229 155.233 270.493 156.116C270.97 157.698 272.188 160.33 273.458 160.242C275.444 160.118 279.054 156.708 282.16 158.846C285.584 161.152 289.123 158.996 290.385 160.322C291.806 161.823 289.899 167.389 277.033 184.13C277.033 184.13 277.033 184.359 277.086 184.73L273.476 186.497C273.476 186.497 266.469 172.681 264.025 161.011Z" fill="#BD453D"/>
<path d="M316.754 179.951C315.532 183.794 313.183 187.18 310.012 189.669C305.872 192.973 300.815 194.92 295.53 195.243C292.644 195.437 286.158 196.171 279.821 192.593C277.995 191.568 275.1 189.898 273.476 186.471C272.411 184.388 272.084 182.005 272.55 179.713C272.821 178.627 273.294 177.602 273.944 176.691C280.219 167.539 283.36 162.972 286.987 160.984C287.614 160.64 297.215 155.586 307.285 159.721C309.5 160.604 315.395 163.087 317.495 168.988C319.004 173.29 317.513 177.38 316.754 179.951Z" fill="#EC6961"/>
</g>
<path d="M289.917 126.672C290.162 126.033 290.27 125.35 290.235 124.667C290.235 123.218 289.97 122.732 290.35 122.538C290.729 122.343 290.562 121.407 291.303 121.319C291.797 121.266 291.876 120.665 292.185 120.479C292.292 120.441 292.406 120.428 292.518 120.444C292.631 120.459 292.737 120.502 292.83 120.568C292.83 119.437 292.83 118.35 292.874 117.352C293.227 105.762 294.78 104.507 295.565 104.101C298.089 102.882 301.805 105.788 302.881 106.636C305.423 108.624 309.059 112.582 311.212 123.571C312.869 132.159 312.925 140.979 311.38 149.588C310.983 150.126 310.737 150.76 310.665 151.425C310.806 151.425 312.8 151.584 312.95 151.584C313.912 151.584 314.301 150.436 314.477 150.109C316.604 146.284 316.869 125.753 311.618 113.43C309.059 107.414 307.532 104.419 304.373 102.502C301.213 100.585 295.909 99.2242 292.653 101.618C291.506 102.502 290.006 104.269 289.653 114.34C289.511 118.452 289.6 122.569 289.917 126.672Z" fill="#FEB42B"/>
<path d="M298.089 162.38C296.43 163.334 295.115 162.53 295.115 160.675C295.115 157.874 297.966 154.491 299.951 155.233C302.096 155.966 300.94 160.754 298.089 162.38Z" fill="#75BD69"/>
<path d="M295.256 161.62C294.374 158.926 297.692 154.447 299.951 155.233C300.895 157.848 297.542 162.424 295.256 161.62Z" fill="#5D9753"/>
<path d="M275.639 138.404C275.877 138.722 276.115 139.031 276.362 139.331L278.295 138.236C279.684 131.674 281.779 125.282 284.543 119.172C287.049 113.642 288.302 110.868 289.52 110.921C291.709 111.027 294.462 119.189 296.58 156.859C296.36 157.092 296.168 157.35 296.007 157.627C295.806 157.927 295.676 158.268 295.627 158.625L297.904 160.136C298.308 160.165 298.706 160.033 299.013 159.768C299.319 159.503 299.507 159.127 299.537 158.723C299.642 157.3 299.228 106.053 290.05 106.371C288.055 106.433 286.343 109.905 282.928 116.857C279.555 123.684 277.104 130.93 275.639 138.404Z" fill="#FFC52C"/>
<path d="M307.32 173.582L315.607 178.326L307.329 192.566L299.078 187.822L307.32 173.582Z" fill="white"/>
<path d="M322.711 172.601L307.32 163.767L291.673 190.746C288.249 196.639 288.258 203.026 291.673 204.961L307.329 213.945L322.976 187.001C326.4 181.1 326.391 174.712 322.976 172.751L322.711 172.601ZM320.725 185.729L307.338 208.786L293.959 201.109C291.771 199.855 291.771 195.808 293.959 192.054L300.896 180.066L307.32 168.979L313.789 172.654L320.443 176.506L320.734 176.665C322.914 177.919 322.923 181.965 320.734 185.729H320.725Z" fill="white"/>
<path d="M364.806 161.876L365.256 246.623L372.731 236.543L368.592 156.814L364.806 161.876Z" fill="#623F83"/>
<path d="M353.792 162.557L349.803 247.595L365.256 246.623L364.806 161.876L353.792 162.557Z" fill="#6F4894"/>
<path d="M422.592 187.001L429.316 270.926L372.731 236.578C369.695 178.043 368.856 161.885 368.601 156.85L422.592 187.001ZM388.121 174.076C387.177 176.727 390.531 181.259 392.816 180.463C393.725 177.778 390.38 173.29 388.121 174.076ZM400.662 181.691C399.717 184.342 403.071 188.874 405.356 188.079C406.265 185.393 402.921 180.896 400.662 181.691Z" fill="#6F4894"/>
<path d="M413.255 189.421L413.705 274.177L432.837 271.482L426.113 187.602L413.255 189.421Z" fill="url(#paint8_linear_45_109)"/>
<path d="M410.395 197.84L409.098 287.419L413.705 274.177L413.255 189.421L410.395 197.84Z" fill="url(#paint9_linear_45_109)"/>
<path d="M350.024 161.726L345.603 250.545L409.098 287.419L410.396 197.84L350.024 161.726Z" fill="url(#paint10_linear_45_109)"/>
<path d="M363.553 160.922L368.009 154.959L426.113 187.646L413.255 189.466L410.396 197.885L350.024 161.761L363.553 160.922ZM409.319 195.552L411.693 188.547L422.592 187.001L368.601 156.814L364.815 161.876L353.792 162.557C358.92 165.596 378.943 177.486 409.319 195.552ZM386.498 165.339L389.789 167.195C389.745 167.68 389.701 168.157 389.648 168.608L386.365 166.77C386.401 166.27 386.445 165.793 386.498 165.339Z" fill="#B561D6"/>
<path d="M389.789 167.168L392.693 168.794C393.411 161.616 393.452 154.388 392.816 147.203C391.616 148.083 390.654 149.249 390.019 150.595C390.348 156.118 390.272 161.657 389.789 167.168Z" fill="#B992DE"/>
<path d="M369.492 191.462C371.151 192.425 372.466 191.621 372.457 189.766C372.457 186.965 369.607 183.626 367.621 184.324C365.485 185.057 366.641 189.845 369.492 191.462Z" fill="#8C5BBA"/>
<path d="M372.325 190.711C373.207 188.017 369.88 183.529 367.621 184.324C366.677 186.939 370.03 191.506 372.325 190.711Z" fill="#6F4894"/>
<mask id="mask1_45_109" style="mask-type:luminance" maskUnits="userSpaceOnUse" x="346" y="93" width="110" height="103">
<path d="M409.319 195.552L411.693 188.547L422.592 187.001L455.968 124.517L346.706 93.8972L353.801 162.557L409.319 195.552Z" fill="white"/>
</mask>
<g mask="url(#mask1_45_109)">
<path d="M366.368 179.359C364.924 179.845 363.517 180.435 362.158 181.126C361.876 181.294 359.987 182.54 360.005 184.342C360.08 185.272 360.514 186.137 361.214 186.753C361.82 187.321 362.534 187.761 363.313 188.046C364.092 188.331 364.921 188.457 365.75 188.414C367.014 188.978 368.341 189.384 369.704 189.625C367.877 183.988 368.636 186.329 366.368 179.359Z" fill="#F8A349"/>
<path d="M366.368 179.359C366.368 179.359 364.488 180.031 363.12 180.649C363.014 182.098 363.206 183.553 363.685 184.925C364.142 186.224 364.843 187.423 365.75 188.458C367.024 188.992 368.349 189.398 369.704 189.669C367.877 183.988 368.636 186.329 366.368 179.359Z" fill="#E3831B"/>
<path d="M370.78 178.264C369.503 177.995 368.172 178.239 367.074 178.944C366.844 179.077 366.615 179.2 366.368 179.359C363.87 180.994 364.682 184.006 366.235 186.559C367.068 188.071 368.286 189.336 369.765 190.225C370.408 190.603 371.119 190.85 371.857 190.95C374.028 191.232 376.525 189.969 376.843 189.13C373.322 182.822 374.681 185.278 370.78 178.264Z" fill="#F8A349"/>
<path d="M370.78 178.264C369.503 177.995 368.172 178.239 367.074 178.944C367.4 181.055 368.068 183.099 369.05 184.995C370.314 187.209 371.964 189.178 373.922 190.808C374.804 190.605 376.516 189.925 376.825 189.13C373.322 182.822 374.681 185.278 370.78 178.264Z" fill="#E3831B"/>
<path d="M387.918 185.737L377.981 177.354C376.896 176.47 372.766 173.255 371.371 173.37C369.809 173.423 367.841 175.048 367.841 176.78C367.837 177.371 367.878 177.962 367.965 178.546C368.459 181.621 370.286 184.271 372.422 186.497C376.834 191.153 378.458 191.4 382.817 189.872C384.836 189.277 386.576 187.98 387.724 186.215C387.801 186.061 387.865 185.901 387.918 185.737Z" fill="#F8A349"/>
<path d="M387.918 185.737L377.981 177.354C376.896 176.47 372.766 173.255 371.371 173.37C370.976 173.397 370.588 173.493 370.224 173.652C370.375 174.342 370.564 175.024 370.789 175.693C371.558 177.682 372.626 179.541 373.957 181.206C374.62 182.019 375.359 182.767 376.163 183.441C379.12 185.741 382.591 187.287 386.277 187.946C386.998 187.357 387.562 186.598 387.918 185.737Z" fill="#E3831B"/>
<path d="M398.57 161.655C397.234 163.005 395.801 164.254 394.281 165.392C394.246 165.408 394.213 165.429 394.184 165.454C389.771 168.67 386.515 168.626 382.95 167.08C382.912 167.073 382.876 167.058 382.844 167.036C381.079 166.214 380.92 166.055 379.535 165.357C378.984 164.992 378.356 164.76 377.701 164.679C377.046 164.597 376.38 164.669 375.757 164.889C372.942 165.896 371.089 170.145 371.698 173.396C372.254 176.409 374.637 178.652 376.675 180.534C377.231 181.047 377.893 181.647 378.67 182.301C381.961 185.031 385.677 186.833 389.842 186.073C394.007 185.313 396.381 182.221 397.785 180.437C401.632 175.569 403.865 165.967 398.57 161.655Z" fill="#F8A349"/>
<path d="M398.57 161.655C397.234 163.005 395.801 164.254 394.281 165.392C394.246 165.408 394.213 165.429 394.184 165.454C391.148 167.61 388.007 168.829 384.477 167.654C383.923 167.489 383.384 167.282 382.862 167.036C382.517 166.894 381.979 166.611 381.838 166.541C381.485 166.382 380.17 165.657 379.552 165.357C379.002 164.992 378.374 164.76 377.719 164.679C377.063 164.597 376.398 164.669 375.775 164.889C375.41 165.021 375.063 165.199 374.743 165.419C374.681 166.611 375.299 168.069 377.125 169.659C380.435 172.61 384.803 172.716 387.221 172.495C393.081 171.956 401.712 166.558 398.57 161.655Z" fill="#E3831B"/>
<path d="M397.308 154.738C395.066 151.205 394.228 150.993 391.766 151.001C391.227 153.662 389.752 156.042 387.609 157.707C386.841 158.302 385.995 158.789 385.094 159.155C384.093 159.55 383.019 159.731 381.944 159.685C380.563 159.621 379.223 159.201 378.052 158.466L377.849 158.343C377.425 158.832 377.033 159.348 376.675 159.889C376.154 160.593 375.803 161.409 375.65 162.272C375.497 163.135 375.546 164.021 375.793 164.862C377.284 168.758 384.618 171.267 389.913 169.191C397.855 166.073 398.623 161.629 398.623 161.629C398.87 160.45 398.881 159.235 398.655 158.052C398.43 156.869 397.972 155.743 397.308 154.738Z" fill="#F8A349"/>
<path d="M394.422 151.452C393.59 151.087 392.68 150.938 391.775 151.019C391.236 153.68 389.761 156.059 387.618 157.724C386.846 158.314 385.997 158.796 385.094 159.155C384.093 159.55 383.019 159.731 381.944 159.685C380.563 159.621 379.223 159.201 378.052 158.466L377.849 158.343C377.425 158.832 377.033 159.348 376.675 159.889C384.583 164.173 392.71 159.703 394.422 151.452Z" fill="#E3831B"/>
<path d="M385.439 146.293C384.723 146.365 384.016 146.51 383.329 146.726C382.937 146.823 382.571 147.005 382.255 147.258C381.94 147.512 381.683 147.83 381.503 148.192C381.556 148.334 381.617 148.466 381.67 148.599C381.92 149.162 382.009 149.785 381.927 150.396C381.844 151.008 381.593 151.584 381.203 152.062L381.088 152.176C380.799 152.482 380.466 152.741 380.099 152.945C379.113 153.464 378.026 153.765 376.914 153.828C376.914 153.952 376.852 154.208 376.825 154.544C376.812 154.765 376.812 154.986 376.825 155.207C376.838 156.268 377.18 157.299 377.805 158.157C377.881 158.27 377.97 158.374 378.07 158.466C381.67 162.557 391.254 159.579 391.784 150.993C390.46 147.75 387.601 146.151 385.439 146.293Z" fill="#F8A349"/>
<path d="M385.438 146.293C384.721 146.357 384.014 146.502 383.329 146.726C382.937 146.823 382.571 147.005 382.255 147.258C381.94 147.512 381.683 147.83 381.503 148.192C381.556 148.334 381.617 148.466 381.67 148.599C382.87 151.911 380.382 153.21 376.914 153.855C376.914 153.979 376.852 154.235 376.825 154.57C376.812 154.791 376.812 155.012 376.825 155.233C378.588 155.878 380.516 155.906 382.297 155.313C386.25 153.767 386.445 151.355 386.383 149.738C386.333 148.533 386.01 147.355 385.438 146.293Z" fill="#E3831B"/>
<path d="M383.938 146.531C383.682 146.469 383.4 146.399 383.126 146.346C380.708 145.798 377.275 145.939 375.184 148.457C374.941 148.83 374.773 149.247 374.69 149.685C374.635 149.88 374.614 150.084 374.628 150.286C374.686 151.109 374.908 151.912 375.281 152.648C375.654 153.384 376.17 154.037 376.799 154.57C378.352 155.185 380.081 155.185 381.635 154.57C385.739 152.918 386.083 149.067 383.938 146.531Z" fill="#F8A349"/>
<g style="mix-blend-mode:multiply" opacity="0.3">
<path d="M382.5 157.848C382.12 157.058 382.042 156.156 382.279 155.313C382.11 155.045 381.902 154.804 381.661 154.597C379.296 152.609 380.064 155.816 374.716 149.685C374.416 150.728 374.963 152.874 376.825 154.57C376.697 155.852 377.039 157.136 377.787 158.184C377.863 158.297 377.952 158.4 378.052 158.493L377.849 158.369C376.278 160.207 374.893 162.592 375.758 164.889C372.995 165.869 371.072 170.066 371.698 173.396C370.516 173.105 367.833 174.739 367.842 176.78C367.837 177.371 367.879 177.962 367.965 178.546C367.408 178.772 366.873 179.05 366.368 179.377C364.925 179.865 363.518 180.456 362.158 181.144C361.276 181.691 359.59 182.849 360.005 184.359C360.625 184.061 361.329 183.983 362 184.139C362.714 184.324 362.82 184.704 363.685 184.925C364.347 185.101 364.4 184.872 365.45 185.04C366.5 185.207 367.4 185.729 369.051 184.987C369.66 184.942 370.93 184.783 370.93 184.783C371.898 185.111 372.946 185.111 373.913 184.783C374.727 184.428 375.495 183.974 376.199 183.432C376.199 183.432 378.034 182.628 378.67 182.275C378.132 181.17 377.055 178.608 378.193 176.894C378.732 176.082 379.543 175.817 381.035 175.225C382.526 174.633 384.644 173.749 387.212 172.486C386.991 172.091 386.893 171.639 386.93 171.188C386.93 170.605 387.936 169.915 387.812 169.774C386.447 168.831 385.506 167.389 385.191 165.759C384.876 164.129 385.212 162.44 386.127 161.055L385.43 159.756C384.825 159.695 384.243 159.49 383.733 159.158C383.224 158.826 382.801 158.377 382.5 157.848Z" fill="#E3831B"/>
</g>
<g style="mix-blend-mode:screen" opacity="0.5">
<path d="M383.091 180.296C382.896 180.004 382.783 179.665 382.764 179.315C382.967 177.027 390.054 177.946 395.428 173.449C397.793 171.479 398.817 169.306 399.479 169.633C400.141 169.96 399.726 172.539 399.029 174.447C397.467 178.732 393.037 183.759 388.28 183.282C388.042 183.255 384.388 182.84 383.091 180.296Z" fill="#F8A349"/>
</g>
<g style="mix-blend-mode:screen" opacity="0.5">
<path d="M392.472 166.223C391.016 166.797 388.995 167.106 388.748 166.558C388.501 166.011 390.963 165.286 392.393 162.592C393.46 160.569 393.063 159.058 394.766 157.15C395.252 156.62 395.728 156.099 396.17 156.214C397.202 156.47 397.838 159.95 396.567 162.627C395.704 164.3 394.241 165.585 392.472 166.223Z" fill="#F8A349"/>
</g>
<g style="mix-blend-mode:screen" opacity="0.5">
<path d="M386.33 158.272C389.057 157.459 391.484 153.042 390.945 151.063C390.822 150.604 390.531 149.915 390.231 149.924C389.63 149.924 390.125 152.662 388.466 154.553C386.992 156.267 384.653 156.32 384.653 157.406C384.645 157.576 384.679 157.746 384.751 157.9C384.823 158.054 384.932 158.187 385.068 158.29C385.271 158.343 385.589 158.466 386.33 158.272Z" fill="#F8A349"/>
</g>
<g style="mix-blend-mode:screen" opacity="0.5">
<path d="M384.335 148.961C384.45 148.713 382.747 146.911 380.505 146.929C378.017 146.929 376.252 149.217 376.393 149.447C376.534 149.676 377.117 149.102 378.714 148.749C379.581 148.541 380.47 148.443 381.361 148.457C383.232 148.501 384.247 149.137 384.335 148.961Z" fill="#F8A349"/>
</g>
<g style="mix-blend-mode:screen" opacity="0.5">
<path d="M384.203 188.308C384.265 188.52 381.361 190.579 378.167 189.81C375.66 189.218 374.019 187.16 373.966 186.48C373.913 185.799 375.554 186.983 377.664 187.796C378.392 188.103 379.149 188.34 379.923 188.503C382.394 188.962 384.15 188.158 384.203 188.308Z" fill="#F8A349"/>
</g>
<g style="mix-blend-mode:multiply" opacity="0.3">
<path d="M387.724 186.232C388.434 186.242 389.144 186.183 389.842 186.056C393.963 185.26 396.381 182.213 397.785 180.419C401.465 175.773 403.671 166.735 399.161 162.203C398.95 162.777 391.501 180.296 387.724 186.232Z" fill="#E3831B"/>
</g>
<path d="M431.346 152.185C426.166 164.191 413.484 190.331 408.092 201.242L408.048 201.33C406.336 204.864 407.271 204.811 405.462 209.024C404.58 211.189 404.58 210.553 401.668 216.154C401.597 216.286 399.973 219.316 398.526 222.099L394.996 228.954C393.628 231.366 391.466 235.262 387.301 238.089C384.821 239.785 381.891 241.941 379.058 240.863C376.225 239.785 375.219 236.057 375.051 235.333L374.24 230.085C380.046 216.401 384.538 205.349 387.477 198.088C391.422 188.238 402.524 160.869 412.187 145.754C414.031 142.874 422.477 130.109 430.163 130.303C437.338 130.488 433.667 145.418 431.346 152.185Z" fill="#F08130"/>
<g style="mix-blend-mode:multiply" opacity="0.3">
<path d="M433.075 131.769C436.032 135.701 433.252 146.655 431.31 152.203C425.715 165.163 412.028 193.026 408.057 201.259L408.013 201.348C406.301 204.881 407.236 204.828 405.427 209.042C404.544 211.206 404.544 210.57 401.632 216.171C401.562 216.304 394.969 228.822 394.943 228.972C393.575 231.384 391.413 235.28 387.248 238.107C385.689 239.324 383.946 240.285 382.085 240.951C385.646 238.389 388.704 235.191 391.104 231.516C393.19 228.175 394.738 224.526 395.693 220.703C397.873 213.327 399.514 213.097 407.448 197.734C418.85 175.702 425.565 153.996 430.287 144.27C430.816 143.254 430.816 143.254 433.075 131.769Z" fill="#E3831B"/>
</g>
<path d="M430.843 130.647C432.105 131.981 428.796 135.992 426.616 145.286C424.507 149.765 422.486 155.887 392.322 217.505C385.553 231.057 375.281 245.925 374.328 230.845C374.286 230.277 374.342 229.706 374.496 229.158C374.734 228.23 375.237 226.993 376.005 224.396C376.887 221.498 376.693 221.578 377.611 218.353C381.273 205.455 384.883 200.915 386.286 196.268C386.356 196.047 386.568 195.323 386.948 194.368C387.365 193.298 387.863 192.261 388.439 191.268C391.387 186.073 400.106 163.069 405.789 155.569C405.992 155.207 415.902 139.959 416.432 139.27C420.685 133.837 424.374 131.584 427.772 130.683C429.122 130.347 430.278 130.056 430.843 130.647Z" fill="#FEAA47"/>
<path d="M425.08 148.554L392.331 217.505C385.562 231.057 375.29 245.925 374.337 230.845C374.294 230.277 374.351 229.706 374.504 229.158C375.475 229.988 375.855 234.361 377.964 234.767C381.873 235.518 388.227 222.02 392.084 213.804C392.304 213.344 392.922 211.94 393.902 210.067C395.199 207.602 396.602 205.199 397.89 202.734C399.038 200.552 423.447 150.463 425.08 148.554Z" fill="#FFCB68"/>
<path d="M418.806 142.9L418.073 145.816C402.753 170.852 401.915 180.499 393.063 192.999L392.428 199.245L389.127 206.224C389.127 206.224 386.074 211.171 383.991 215.465C381.909 219.758 380.188 220.597 380.188 220.597L386.471 204.113C386.471 204.113 387.256 201.268 389.419 195.508C391.581 189.748 418.409 143.537 418.806 142.9Z" fill="#F08130"/>
<path d="M418.806 142.9C418.506 143.378 397.52 181.276 397.846 181.488C397.926 181.541 398.932 180.048 399.038 180.119C399.144 180.19 396.39 185.181 391.095 194.006C390.61 195.252 390.116 196.506 389.63 197.761L389.833 199.802C387.636 204.819 388.457 203.026 386.25 207.646L387.857 206.321L385.412 210.403L383.188 215.447L380.161 220.597L386.445 204.113C389.895 191.789 401.2 169.288 408.313 158.404C413.272 150.904 416.679 145.984 418.806 142.9Z" fill="#FFCB68"/>
</g>
<path d="M368.565 187.495C368.75 187.822 369.13 188.971 370.101 188.962C370.251 188.962 372.245 188.821 372.386 188.812C372.315 188.147 372.068 187.513 371.672 186.974C370.121 178.366 370.178 169.545 371.839 160.958C374.001 149.968 377.628 146.001 380.17 144.014C381.247 143.13 384.953 140.268 387.486 141.478C388.077 141.77 389.118 142.574 389.736 148.042C390.632 148.866 391.326 149.884 391.766 151.019C392.303 150.998 392.841 151.03 393.372 151.116C392.966 141.575 391.519 139.87 390.398 139.031C387.142 136.611 381.864 137.944 378.67 139.915C375.475 141.885 373.992 144.835 371.433 150.842C366.182 163.14 366.447 183.67 368.565 187.495Z" fill="url(#paint11_linear_45_109)"/>
<path d="M384.988 199.731C386.647 200.694 387.962 199.89 387.954 198.035C387.954 195.234 385.112 191.895 383.126 192.593C380.982 193.326 382.138 198.114 384.988 199.731Z" fill="#8C5BBA"/>
<path d="M387.821 198.98C388.704 196.286 385.386 191.807 383.126 192.593C382.182 195.208 385.536 199.793 387.821 198.98Z" fill="#6F4894"/>
<path d="M383.559 196.082C383.59 196.487 383.781 196.863 384.088 197.128C384.396 197.393 384.796 197.525 385.2 197.496L386.083 196.895L387.486 195.959C387.436 195.599 387.306 195.255 387.106 194.952L386.868 194.589C386.773 194.444 386.66 194.31 386.533 194.192C388.616 156.549 391.36 148.387 393.593 148.254C394.811 148.201 396.064 150.966 398.57 156.514C399.629 158.846 400.529 161.108 401.297 163.237C401.835 162.177 402.374 161.161 402.894 160.216C402.118 158.272 401.226 156.258 400.247 154.191C396.832 147.238 395.119 143.766 393.125 143.696C383.877 143.413 383.462 194.66 383.559 196.082Z" fill="#6F4894"/>
<path d="M375.757 210.941L367.471 215.685L375.749 229.917L384 225.182L375.757 210.941Z" fill="white"/>
<path d="M360.093 210.138C356.678 212.099 356.669 218.486 360.093 224.378L375.74 251.331L391.395 242.347C394.819 240.412 394.819 234.025 391.395 228.133L375.749 201.153L360.358 209.987L360.093 210.138ZM362.326 223.088C360.137 219.325 360.137 215.279 362.326 214.025L362.617 213.857L369.271 210.014L375.731 206.339L382.182 217.461L389.118 229.458C391.307 233.221 391.298 237.259 389.118 238.513L375.74 246.19L362.326 223.088Z" fill="white"/>
<path d="M393.275 215.332V239.873C341.508 269.804 329.735 276.615 325.199 279.221V254.688L393.275 215.332Z" fill="#CC6F19"/>
<path d="M325.199 254.688V279.221L276.089 250.81V226.278L325.199 254.688Z" fill="#D68C47"/>
<path d="M288.302 245.227C289.697 244.423 291.665 246.34 292.494 247.78C293.038 248.7 293.341 249.742 293.377 250.81C293.422 251.167 293.371 251.529 293.23 251.86C293.089 252.191 292.862 252.478 292.574 252.692C289.864 254.264 285.646 246.764 288.302 245.227Z" fill="#995313"/>
<path d="M289.202 245.077H289.008C288.762 245.073 288.518 245.134 288.302 245.253C285.999 246.587 288.911 252.895 291.903 252.895C292.128 252.907 292.352 252.857 292.551 252.751C292.75 252.645 292.916 252.487 293.032 252.294C290.403 251.976 287.826 247.073 289.202 245.077Z" fill="#CC6F19"/>
<path d="M279.848 240.2C281.242 239.396 283.21 241.313 284.04 242.745C284.581 243.665 284.885 244.707 284.922 245.775C284.968 246.134 284.917 246.499 284.774 246.831C284.632 247.164 284.402 247.452 284.11 247.665C281.41 249.264 277.183 241.737 279.848 240.2Z" fill="#995313"/>
<path d="M280.748 240.041C280.681 240.036 280.613 240.036 280.545 240.041C280.3 240.038 280.059 240.102 279.848 240.227C277.536 241.561 280.457 247.868 283.449 247.868C283.692 247.871 283.932 247.81 284.146 247.692C284.321 247.582 284.469 247.434 284.578 247.259C281.948 246.941 279.371 242.047 280.748 240.041Z" fill="#CC6F19"/>
<path d="M393.275 215.332V218.459L325.199 257.807V254.688L393.275 215.332Z" fill="#995313"/>
<path d="M325.199 254.688V257.807L276.089 229.387V226.278L325.199 254.688Z" fill="#CC6F19"/>
<path d="M394.59 216.092V208.168L324.864 248.469V256.393L394.59 216.092Z" fill="#FF8B1F"/>
<path d="M324.864 248.469L274.774 219.493V227.417L324.864 256.393V248.469Z" fill="#FEB42B"/>
<path d="M394.581 208.159L386.895 212.576L324.873 248.434L274.774 219.458L279.839 216.578C309.844 199.245 285.576 213.256 330.424 187.354C331.986 186.418 333.689 185.472 335.481 184.448L336.804 183.679C337.996 182.99 339.222 182.283 340.493 181.532C341.764 180.782 343.141 180.013 344.517 179.2C345.232 179.607 347.553 180.967 350.915 182.919C363.932 190.428 391.899 206.595 394.581 208.159Z" fill="#FFC52C"/>
<path d="M334.007 264.715C332.771 264 331.015 265.705 330.274 266.986C329.778 267.804 329.496 268.733 329.453 269.689C329.411 270.007 329.456 270.33 329.583 270.624C329.711 270.918 329.916 271.172 330.177 271.359C332.621 272.763 336.372 266.049 334.007 264.715Z" fill="#540E00"/>
<path d="M333.204 264.583H333.38C333.6 264.577 333.816 264.632 334.007 264.742C336.063 265.934 333.46 271.553 330.803 271.553C330.583 271.553 330.367 271.495 330.177 271.385C330.021 271.289 329.888 271.159 329.788 271.005C332.136 270.722 334.43 266.358 333.204 264.583Z" fill="#995313"/>
<path d="M365.635 266.482C369.695 267.957 394.422 284.954 407.192 278.134C407.474 277.984 412.346 275.299 412.487 271.155C412.485 270.275 412.327 269.401 412.019 268.576C411.468 266.846 410.502 265.277 409.204 264.008C406.054 261.014 391.034 253.708 388.492 252.294C385.95 250.881 374.84 241.693 374.84 241.693C374.84 241.693 366.015 246.932 356.66 244.07C354.817 245.087 353.29 246.594 352.248 248.425C352.248 248.425 353.925 251.906 352.636 254.927C352.636 255.13 352.213 256.65 352.169 256.994C351.963 258.692 352.397 260.405 353.386 261.8C355.116 264.486 361.805 265.086 365.635 266.482Z" fill="url(#paint12_linear_45_109)"/>
<path d="M365.653 262.365C372.898 265.484 375.599 269.857 388.21 273.85C391.633 274.976 395.15 275.789 398.72 276.279C401.523 276.763 404.403 276.495 407.069 275.502C408.578 274.901 411.19 273.85 412.452 271.173C414.129 267.639 412.355 262.586 409.592 259.856C406.442 256.835 391.431 249.547 388.88 248.116C386.912 247.029 379.614 241.128 377.884 239.706C377.002 238.99 376.393 238.46 375.237 237.532C372.844 239.808 369.789 241.261 366.515 241.681C363.241 242.1 359.919 241.464 357.031 239.865L356.334 240.289C356.267 240.31 356.204 240.343 356.149 240.386C354.339 242.038 352.945 245.342 352.398 247.559C352.354 247.63 352.213 248.328 352.195 248.443C352.69 249.51 352.966 250.665 353.009 251.841C353.051 253.017 352.858 254.189 352.442 255.289C352.211 255.741 352.084 256.239 352.071 256.747C352.06 256.835 352.06 256.924 352.071 257.012C353.28 260.21 359.423 259.653 365.653 262.365Z" fill="#742F4C"/>
<path d="M373.798 257.878C379.914 263.584 387.654 266.712 395.984 268.178C401.624 269.194 407.139 268.991 410.801 265.201C411.237 264.729 411.502 264.125 411.555 263.484C411.607 262.844 411.445 262.205 411.093 261.667C410.662 261.03 410.168 260.438 409.619 259.901C406.468 256.879 391.457 249.591 388.907 248.16C387.142 247.197 381.37 242.559 377.911 239.75L365.556 243.495C366.28 249.724 369.245 253.602 373.798 257.878Z" fill="#A9436E"/>
<path d="M365.653 262.365C361.012 255.669 358.054 247.95 357.031 239.865C356.925 239.971 356.795 240.05 356.652 240.094C355.866 240.35 354.745 239.529 353.81 238.107C352.619 241.396 352.068 244.884 352.186 248.381C352.186 248.381 351.966 256.402 352.107 256.95C352.101 256.961 352.097 256.973 352.097 256.985C352.097 256.998 352.101 257.01 352.107 257.021C352.963 260.139 359.176 259.574 365.653 262.365Z" fill="#642841"/>
<path d="M366.986 246.905C370.313 246.835 372.51 245.907 376.172 244.335C379.835 242.762 382.138 241.358 380.444 238.151C379.464 236.384 377.143 235.439 374.619 235.58C367.604 233.813 360.183 234.723 353.801 238.133C353.656 238.926 353.684 239.741 353.883 240.522C354.083 241.303 354.449 242.031 354.957 242.656C355.902 243.752 361.964 246.967 366.986 246.905Z" fill="#CF5286"/>
<path d="M358.496 241.411C358.928 241.623 359.379 241.843 359.952 242.064C363.747 243.707 368.459 242.948 372.863 240.386C374.418 239.449 375.868 238.347 377.187 237.1C376.517 237.206 375.864 237.347 375.184 237.506C373.783 237.04 372.345 236.695 370.886 236.472C366.97 235.792 362.945 236.152 359.211 237.515C356.537 238.522 354.472 239.335 358.496 241.411Z" fill="#742F4C"/>
<path d="M358.496 241.411C358.928 241.623 359.379 241.843 359.952 242.064C363.747 243.708 368.459 242.948 372.863 240.386C372.251 240.216 371.629 240.086 371.001 239.997C367.089 239.325 363.07 239.69 359.343 241.057C359.043 241.172 358.752 241.313 358.496 241.411Z" fill="#3A1826"/>
<path d="M384.83 272.639C385.888 273.046 387.018 273.452 388.209 273.823L395.958 268.178C394.758 267.966 393.566 267.701 392.357 267.392L384.83 272.639Z" fill="#A9436E"/>
<path d="M378.158 269.654C379.04 270.104 380.02 270.581 381.158 271.12L387.971 266.138C386.868 265.784 385.818 265.387 384.847 264.971L378.158 269.654Z" fill="#A9436E"/>
<path d="M344.959 281.35C349.062 282.657 374.452 298.647 386.939 291.315C387.221 291.147 391.978 288.267 391.916 284.124C391.874 283.247 391.683 282.383 391.351 281.571C390.725 279.876 389.695 278.36 388.351 277.154C385.077 274.283 369.774 267.586 367.171 266.279C364.568 264.971 353.113 256.217 353.113 256.217C353.113 256.217 344.464 261.809 335.039 259.326C333.229 260.415 331.754 261.984 330.777 263.858C330.777 263.858 332.595 267.268 331.43 270.343C331.43 270.537 331.068 272.109 331.042 272.419C330.903 274.124 331.406 275.819 332.454 277.171C334.36 279.778 341.067 280.104 344.959 281.35Z" fill="#3A1826"/>
<path d="M344.808 277.233C352.168 280.051 355.045 284.301 367.806 287.781C371.271 288.756 374.815 289.424 378.396 289.778C381.217 290.144 384.084 289.761 386.709 288.665C388.183 288.002 390.751 286.845 391.907 284.115C393.434 280.484 391.466 275.546 388.598 272.931C385.324 270.033 370.066 263.355 367.418 262.038C365.415 261.031 357.878 255.422 356.096 254.088C355.213 253.407 354.551 252.913 353.36 252.029C351.065 254.404 348.074 255.985 344.821 256.543C341.568 257.101 338.222 256.606 335.269 255.13C335.269 255.13 334.775 255.466 334.589 255.572C334.524 255.598 334.464 255.637 334.413 255.687C332.648 257.409 331.403 260.766 330.945 263.001C330.945 263.072 330.786 263.779 330.777 263.885C331.313 264.931 331.636 266.074 331.725 267.247C331.815 268.419 331.669 269.598 331.298 270.714C331.086 271.176 330.98 271.68 330.989 272.189C330.995 272.276 331.013 272.362 331.042 272.445C332.321 275.581 338.499 274.777 344.808 277.233Z" fill="#742F4C"/>
<path d="M343.944 258.302C344.923 264.583 348.047 268.337 352.768 272.436C358.24 277.154 364.841 279.866 371.936 281.27C373.066 281.5 374.204 281.695 375.36 281.854C376.516 282.013 377.558 282.11 378.626 282.154C383.091 282.331 387.212 281.447 390.036 278.276C390.462 277.785 390.709 277.163 390.737 276.513C390.764 275.863 390.57 275.223 390.186 274.698C389.728 274.062 389.211 273.47 388.642 272.931C387.186 271.641 383.347 269.609 379.314 267.63C375.281 265.652 370.913 263.673 368.671 262.613L367.48 262.047C365.715 261.164 359.723 256.747 356.157 254.096L343.944 258.302Z" fill="#A9436E"/>
<path d="M371.68 281.182C371.75 281.216 371.824 281.237 371.901 281.244C375.263 281.792 376.737 282.816 378.59 282.127C379.379 281.817 380.066 281.294 380.576 280.617L379.552 267.984L379.279 267.622C375.184 265.616 370.877 263.664 368.636 262.604C372.289 267.904 372.642 271.668 372.263 274.177C371.919 276.429 370.568 280.581 371.68 281.182Z" fill="#9F3A65"/>
<path d="M344.808 277.233C334.333 269.539 332.771 260.651 335.277 255.104C335.172 255.211 335.046 255.295 334.907 255.351C334.13 255.634 332.974 254.856 331.986 253.469C330.927 256.815 330.52 260.333 330.786 263.832C330.786 263.832 330.891 271.853 331.05 272.392C331.05 272.392 331.05 272.445 331.05 272.472C332.03 275.528 338.225 274.707 344.808 277.233Z" fill="#642841"/>
<path d="M345.514 261.738C348.833 261.526 350.986 260.51 354.595 258.796C358.205 257.082 360.437 255.572 358.611 252.418C357.56 250.651 355.204 249.838 352.68 250.086C345.602 248.609 338.227 249.815 331.986 253.469C331.873 254.268 331.934 255.081 332.164 255.854C332.394 256.627 332.788 257.341 333.318 257.948C334.307 259.035 340.502 261.994 345.514 261.738Z" fill="#CF5286"/>
<path d="M336.813 256.579C337.296 256.806 337.791 257.006 338.296 257.18C342.152 258.664 346.829 257.745 351.127 254.98C352.649 253.988 354.055 252.83 355.319 251.526C354.648 251.658 354.004 251.826 353.333 252.003C351.917 251.585 350.467 251.29 349 251.119C345.058 250.598 341.048 251.118 337.369 252.63C334.739 253.778 332.71 254.68 336.813 256.579Z" fill="#742F4C"/>
<path d="M336.813 256.579C337.296 256.806 337.791 257.006 338.296 257.18C342.152 258.664 346.829 257.745 351.127 254.98C350.507 254.839 349.879 254.733 349.247 254.662C345.303 254.151 341.293 254.681 337.616 256.199C337.351 256.332 337.06 256.446 336.813 256.579Z" fill="#3A1826"/>
<path d="M364.382 286.721C365.45 287.092 366.597 287.446 367.806 287.781L375.325 281.827C374.107 281.659 372.907 281.438 371.689 281.173L364.382 286.721Z" fill="#A9436E"/>
<path d="M357.587 284.018C358.469 284.433 359.484 284.901 360.649 285.352L367.25 280.104C366.138 279.795 365.07 279.442 364.091 279.062L357.587 284.018Z" fill="#A9436E"/>
<path fill-rule="evenodd" clip-rule="evenodd" d="M288.443 204.254C305.966 212.998 322.445 223.7 337.563 236.154L344.905 236.879L379.323 217.002L394.625 208.168C364.912 190.985 388.933 204.872 344.473 179.191C342.92 178.255 341.234 177.327 339.452 176.303L338.146 175.543L288.443 204.254Z" fill="#FEB42B"/>
<path d="M389.948 200.27L389.895 205.04L345.929 232.956C343.865 234.256 341.487 234.969 339.05 235.019C336.612 235.069 334.207 234.454 332.092 233.239L306.676 218.574L305.017 217.585C304.964 217.585 292.591 210.438 292.556 210.403L291.303 209.669C290.357 209.123 289.572 208.338 289.025 207.392C288.479 206.446 288.19 205.373 288.187 204.28C288.189 204.038 288.204 203.797 288.232 203.556C288.335 202.603 288.518 201.66 288.779 200.738C289.158 200.11 289.685 199.585 290.314 199.21L339.09 170.507L361.514 183.635L363.147 184.598L389.895 200.243L389.948 200.27Z" fill="url(#paint13_linear_45_109)"/>
<path d="M389.948 200.27L389.895 207.743L343.07 234.962C341.862 235.659 340.493 236.027 339.099 236.027C337.704 236.027 336.335 235.659 335.127 234.962L332.109 233.195C332.065 233.195 292.609 210.394 292.573 210.358C288.249 208.061 288.09 205.314 288.249 203.512C288.352 202.559 288.535 201.616 288.796 200.694L334.863 227.311C336.153 228.054 337.615 228.445 339.103 228.445C340.591 228.445 342.053 228.054 343.343 227.311L389.913 200.226L389.948 200.27Z" fill="url(#paint14_linear_45_109)"/>
<path d="M389.957 189.828L389.913 194.616L345.938 222.532C343.875 223.829 341.499 224.541 339.063 224.591C336.627 224.64 334.224 224.027 332.109 222.815L297.021 202.575C293.43 200.482 289.52 198.918 288.267 195.049V194.996C288.107 193.413 288.284 191.814 288.788 190.305C289.67 188.741 337.502 161.019 339.09 160.074C384.388 186.577 353.025 168.184 389.931 189.828H389.957Z" fill="#C76C4B"/>
<path d="M309.376 206.224C308.706 206.851 310.206 207.558 311.141 207.028L319.375 202.222C319.084 203.918 320.134 205.676 322.455 206.975C326.682 209.342 332.992 209.113 336.575 207.046C337.668 206.48 338.538 205.562 339.046 204.439C341.748 204.78 344.491 204.3 346.918 203.061C347.353 202.814 347.759 202.518 348.127 202.178C351.039 199.528 348.691 195.808 343.458 194.642C343.776 194.507 344.085 194.354 344.385 194.183C347.633 192.301 347.844 189.041 344.041 186.921C340.237 184.801 334.545 184.995 331.35 186.842C331.063 187.009 330.788 187.198 330.53 187.407C327.997 183.971 320.143 183.043 315.81 185.543C315.368 185.793 314.953 186.089 314.574 186.427C314.031 186.854 313.633 187.439 313.436 188.102C313.238 188.765 313.251 189.473 313.471 190.128C311.924 190.327 310.428 190.812 309.059 191.559C308.595 191.832 308.16 192.152 307.761 192.513C303.164 196.745 309.809 201.878 317.813 201.348C317.672 201.383 309.491 206.136 309.376 206.224ZM322.146 197.46C322.146 196.109 321.193 194.748 319.34 193.573C316.595 195.34 315.81 197.991 318.757 200.34C312.721 201.321 306.093 198.008 308.079 194.156C308.303 193.711 308.601 193.308 308.962 192.964C309.288 192.659 309.649 192.395 310.038 192.178C311.402 191.444 312.906 191.007 314.451 190.897C314.586 190.878 314.718 190.837 314.839 190.773C315.007 190.676 315.104 190.534 315.007 190.367C314.124 188.6 315.218 187.098 316.719 186.215C320.928 183.785 328.315 185.154 329.533 188.547C329.665 188.9 330.415 189.006 330.786 188.785L330.883 188.715C331.297 188.201 331.807 187.772 332.383 187.451C335.181 185.835 339.902 185.826 342.973 187.522C346.168 189.289 345.956 192.036 343.264 193.591C342.623 193.948 341.938 194.218 341.226 194.395C341.149 194.416 341.075 194.446 341.005 194.483C340.625 194.704 340.828 195.137 341.455 195.199C344.2 195.473 346.494 196.604 347.43 198.141C347.805 198.706 347.95 199.395 347.833 200.064C347.716 200.733 347.348 201.331 346.803 201.736C346.499 202.012 346.164 202.252 345.806 202.452C343.58 203.595 341.039 203.97 338.578 203.521C338.338 203.479 338.09 203.516 337.872 203.627L337.775 203.697C337.73 203.741 337.696 203.796 337.678 203.856C337.481 204.543 337.088 205.157 336.548 205.623C336.219 205.928 335.855 206.192 335.463 206.41C333.592 207.336 331.531 207.814 329.443 207.806C327.356 207.799 325.299 207.305 323.434 206.365C321.122 205.076 320.284 203.247 321.043 201.595C322.961 202.314 325.003 202.641 327.05 202.556C329.096 202.471 331.105 201.976 332.957 201.1C330.763 200.025 328.338 199.506 325.897 199.59L326.038 199.51C326.754 199.156 327.371 198.629 327.833 197.976C328.295 197.324 328.588 196.567 328.685 195.773C326.469 195.755 324.281 196.279 322.314 197.301L322.075 197.443L322.146 197.46Z" fill="#FFD191"/>
<path d="M389.957 189.828L389.913 194.616V197.319L343.044 224.528C341.836 225.222 340.47 225.591 339.078 225.598C337.686 225.606 336.316 225.253 335.101 224.573C330.221 221.71 295.892 201.913 297.039 202.584C294.25 200.959 288.285 198.238 288.285 195.005C288.125 193.422 288.302 191.823 288.805 190.314L334.863 216.949C336.153 217.691 337.615 218.082 339.103 218.082C340.591 218.082 342.054 217.691 343.344 216.949L389.922 189.837L389.957 189.828Z" fill="#8D2D2E"/>
<path d="M376.64 181.409C369.329 174.577 360.585 169.468 351.048 166.452C348.386 167.587 346.233 169.658 344.994 172.274C344.404 173.628 344.104 175.091 344.111 176.568C344.111 182.946 347.765 184.324 357.764 184.324C364.532 184.324 373.525 184.898 376.64 181.409Z" fill="#8F152D"/>
<path d="M349.874 166.452C360.408 169.526 370.005 175.194 377.787 182.937L378.564 181.965L374.328 177.822C368.673 172.648 362.163 168.496 355.09 165.551C353.21 166.064 351.736 165.94 349.874 166.452Z" fill="#FFD191"/>
<path d="M346.079 178.856L346.494 182.389C345.542 182.016 344.775 181.283 344.359 180.349C343.94 179.608 343.643 178.806 343.476 177.972L346.079 178.856Z" fill="#8D2D2E"/>
<path d="M348.568 164.571C348.568 164.571 340.211 167.477 338.022 173.696C336.39 178.308 337.387 180.225 337.387 180.225L346.079 178.856C344.579 172.928 346.45 167.804 355.09 165.551L348.568 164.571Z" fill="#FFD191"/>
<path d="M353.828 181.241L347.844 183.176C349.119 184.027 350.618 184.482 352.151 184.483C352.707 184.483 354.966 184.483 355.248 183.414C355.425 182.743 354.798 181.886 353.828 181.241Z" fill="#8D2D2E"/>
<path d="M374.328 177.822C370.039 182.637 360.129 182.336 353.828 181.206L350.792 188.043C350.792 188.043 362.864 190.322 370.701 187.027C378.538 183.732 378.564 181.965 378.564 181.965L374.328 177.822Z" fill="#FFD191"/>
<path d="M340.572 349.329C347.05 346.458 354.692 363.658 348.586 367.157L343.449 370.116L335.604 352.156L340.572 349.329Z" fill="#5D5DB3"/>
<path d="M332.895 357.642C332.895 362.36 335.754 367.828 339.284 369.869C342.814 371.909 345.682 369.745 345.682 365.036C345.682 360.328 342.814 354.85 339.284 352.81C335.754 350.769 332.895 352.933 332.895 357.642Z" fill="#323A71"/>
<path d="M338.86 365.063C342.505 367.165 342.585 359.762 338.86 357.616C335.136 355.469 335.136 362.907 338.86 365.063Z" fill="white"/>
<path d="M338.199 356.246C338.419 355.548 339.531 352.342 341.111 347.138C341.624 348.055 342.367 348.823 343.266 349.366C344.165 349.909 345.19 350.209 346.24 350.237C347.29 350.265 348.329 350.019 349.255 349.524C350.181 349.028 350.963 348.301 351.524 347.412V357.845C347.253 360.284 345.135 361.715 340.934 363.093C338.604 363.861 336.31 362.386 338.199 356.246Z" fill="url(#paint15_linear_45_109)"/>
<path d="M346.282 350.274V360.875L351.524 357.881V347.412C351.524 348.976 349.212 350.274 346.282 350.274Z" fill="#A8BCF4"/>
<path d="M341.146 347.412C341.146 351.237 351.56 351.167 351.56 347.341C351.365 343.516 341.146 343.578 341.146 347.412Z" fill="#323A71"/>
<path d="M228.028 284.23C234.506 281.359 242.148 298.559 236.041 302.057L230.914 305.026L223.068 287.066L228.028 284.23Z" fill="#5D5DB3"/>
<path d="M220.35 292.552C220.35 297.26 223.209 302.738 226.739 304.769C230.269 306.801 233.137 304.646 233.137 299.937C233.137 295.229 230.269 289.751 226.739 287.711C223.209 285.67 220.35 287.825 220.35 292.552Z" fill="#323A71"/>
<path d="M226.316 299.955C229.961 302.057 230.04 294.654 226.316 292.508C222.592 290.361 222.592 297.852 226.316 299.955Z" fill="white"/>
<path d="M225.654 291.147C225.875 290.44 226.987 287.234 228.566 282.03C229.08 282.947 229.823 283.715 230.722 284.258C231.621 284.801 232.645 285.101 233.695 285.129C234.745 285.157 235.784 284.911 236.71 284.416C237.637 283.92 238.419 283.193 238.98 282.304V292.737C234.708 295.184 232.59 296.607 228.39 297.985C226.06 298.736 223.774 297.278 225.654 291.147Z" fill="url(#paint16_linear_45_109)"/>
<path d="M233.738 285.175V295.776L238.98 292.773V282.304C238.98 283.877 236.668 285.175 233.738 285.175Z" fill="#A8BCF4"/>
<path d="M228.566 282.304C228.566 286.129 238.98 286.059 238.98 282.242C238.777 278.417 228.566 278.479 228.566 282.304Z" fill="#323A71"/>
<path d="M237.188 284.009C237.453 284.212 286.926 312.791 287.208 312.959L291.55 310.432L241.927 281.748C239.836 280.546 238.724 276.968 240.259 276.094L235.918 278.62C234.506 279.433 235.344 282.604 237.188 284.009Z" fill="#C9D8FF"/>
<path d="M267.29 254.291C225.99 277.852 232.202 274.291 226.413 277.657C267.714 254.097 261.501 257.657 267.29 254.291Z" fill="#636465"/>
<path d="M264.934 253.434L269.276 250.907L246.499 237.744L242.157 240.271L264.934 253.434Z" fill="#C9D8FF"/>
<path d="M291.709 315.556L296.051 313.029L275.833 259.229L271.491 261.756L291.709 315.556Z" fill="#EFF3FF"/>
<path d="M266.911 248.725L271.252 246.199L235.582 144.968L231.249 147.494L266.911 248.725Z" fill="#EFF3FF"/>
<path d="M347.738 347.933L352.08 345.416C352.135 345.598 352.179 345.784 352.213 345.972C352.288 346.308 352.311 346.654 352.283 346.997C352.283 347.313 352.208 347.625 352.064 347.906C351.92 348.187 351.71 348.43 351.454 348.614L347.112 351.14C347.747 350.778 348.259 349.691 347.738 347.933Z" fill="#EFF3FF"/>
<path d="M347.738 347.933L352.08 345.407L296.051 313.029L291.709 315.556L347.738 347.933Z" fill="url(#paint17_linear_45_109)"/>
<path d="M242.157 240.271L246.499 237.744L224.789 123.571L220.456 126.089L242.157 240.271Z" fill="#EFF3FF"/>
<path d="M375.634 300.017L379.976 297.49L277.051 255.607L272.709 258.134L375.634 300.017Z" fill="#C9D8FF"/>
<path d="M272.709 258.134L277.05 255.607L277.359 174.686L273.017 177.213L272.709 258.134Z" fill="#EFF3FF"/>
<path d="M299.175 192.133L299.466 269.017L303.861 266.5V189.457L299.175 192.133Z" fill="#EFF3FF"/>
<path d="M396.876 239.573L396.858 239.555V239.582L396.876 239.573Z" fill="#666769"/>
<path d="M326.117 203.159L326.409 280.034L330.759 277.472V200.429L326.117 203.159Z" fill="#EFF3FF"/>
<path d="M352.769 217.602C352.769 225.862 353.042 290.82 353.042 290.82L357.34 288.285V220.421L352.769 217.602Z" fill="#EFF3FF"/>
<path d="M212.399 102.148L215.929 102.219L229.069 141.301L379.764 234.246L379.552 306.81L271.5 261.756L291.726 315.521L347.756 347.898C348.524 350.504 347.138 352.077 345.109 350.902L228.09 283.276C225.963 282.048 224.913 278.488 226.413 277.622L262.957 256.782L239.077 242.983C210.863 92.846 213.114 104.269 212.399 102.148ZM353.042 290.785L375.625 299.981L375.802 235.845L352.786 222.762L353.042 290.785ZM326.409 279.945L348.471 288.921L348.206 220.111C346.238 218.998 349.645 220.933 326.144 207.531L326.409 279.945ZM299.466 268.982L321.828 278.081L321.546 204.872L299.175 192.098L299.466 268.982ZM294.877 267.109L294.577 189.483L273.018 177.177L272.709 258.09L294.877 267.109ZM231.249 147.459L267.52 247.497L267.731 174.624L231.249 147.459ZM235.917 278.585C234.408 279.468 235.467 283.002 237.585 284.239L287.208 312.959L267.537 260.59L235.917 278.585ZM264.934 253.399C220.086 125.7 227.622 147.388 220.456 126.063L242.157 240.271L264.934 253.399Z" fill="url(#paint18_linear_45_109)"/>
<path d="M432.22 224.14L431.417 267.189L435.838 269.3L435.917 226.454L432.22 224.14Z" fill="#7994DD"/>
<path d="M379.535 301.783L379.755 234.246L384.097 231.719L440.383 199.192V204.21L440.188 271.73L435.855 274.256L379.57 306.784L379.535 301.783ZM436.014 206.763L384.079 236.799L383.894 299.275L435.838 269.238L436.014 206.763Z" fill="#EFF3FF"/>
<path d="M212.399 102.148L215.929 102.228L229.069 141.301C275.374 172.221 245.254 153.369 375.89 231.94H375.828L379.755 234.246L436.023 201.719L440.374 199.183L428.61 188.52L426.298 192.884L432.926 198.962L380.232 229.405C249.367 150.047 283.784 171.461 233.42 138.775L220.244 99.6924L216.714 99.6306L212.399 102.148Z" fill="#C9D8FF"/>
<path d="M220.288 99.6924L233.42 138.775L229.087 141.301L215.938 102.228L220.288 99.6924Z" fill="#EFF3FF"/>
<path d="M390.434 239.176L383.506 235.138L383.674 296.677L390.61 300.715L390.434 239.176Z" fill="#FF8B1F"/>
<path d="M443.939 208.256L437.003 204.219L383.506 235.138L390.434 239.176L443.939 208.256Z" fill="#FEB42B"/>
<path d="M390.434 239.176L390.61 300.715L444.116 269.795L443.939 208.256L390.434 239.176Z" fill="#FFC52C"/>
<defs>
<linearGradient id="paint0_linear_45_109" x1="372.492" y1="53.2157" x2="335.852" y2="166.492" gradientUnits="userSpaceOnUse">
<stop stop-color="#B561D6"/>
<stop offset="1" stop-color="#8848A1"/>
</linearGradient>
<linearGradient id="paint1_linear_45_109" x1="218.976" y1="485.383" x2="292.779" y2="338.766" gradientUnits="userSpaceOnUse">
<stop stop-color="#E9EFFF"/>
<stop offset="1" stop-color="#C9D8FF"/>
</linearGradient>
<linearGradient id="paint2_linear_45_109" x1="394.919" y1="307.564" x2="-194.362" y2="255.417" gradientUnits="userSpaceOnUse">
<stop stop-color="#E9EFFF"/>
<stop offset="1" stop-color="#C9D8FF"/>
</linearGradient>
<linearGradient id="paint3_linear_45_109" x1="-290.154" y1="108.552" x2="373.438" y2="318.596" gradientUnits="userSpaceOnUse">
<stop stop-color="#4650E8"/>
<stop offset="1" stop-color="#46B0E8"/>
</linearGradient>
<linearGradient id="paint4_linear_45_109" x1="349.759" y1="429.747" x2="376.158" y2="388.79" gradientUnits="userSpaceOnUse">
<stop stop-color="#BFCFFF"/>
<stop offset="1" stop-color="#7994DD"/>
</linearGradient>
<linearGradient id="paint5_linear_45_109" x1="240.595" y1="359.4" x2="266.985" y2="318.435" gradientUnits="userSpaceOnUse">
<stop stop-color="#BFCFFF"/>
<stop offset="1" stop-color="#7994DD"/>
</linearGradient>
<linearGradient id="paint6_linear_45_109" x1="354.578" y1="195.649" x2="327.459" y2="195.649" gradientUnits="userSpaceOnUse">
<stop stop-color="#B6D9D3"/>
<stop offset="0.12" stop-color="#B6D9D3"/>
<stop offset="0.43" stop-color="#B6D9D3"/>
<stop offset="0.58" stop-color="#9BC9CC"/>
<stop offset="1" stop-color="#86ADB3"/>
</linearGradient>
<linearGradient id="paint7_linear_45_109" x1="438.494" y1="301.624" x2="381.015" y2="262.995" gradientUnits="userSpaceOnUse">
<stop stop-color="#E9EFFF"/>
<stop offset="1" stop-color="#C9D8FF"/>
</linearGradient>
<linearGradient id="paint8_linear_45_109" x1="403.486" y1="165.437" x2="421.948" y2="238.857" gradientUnits="userSpaceOnUse">
<stop stop-color="#B561D6"/>
<stop offset="1" stop-color="#8848A1"/>
</linearGradient>
<linearGradient id="paint9_linear_45_109" x1="432.476" y1="253.743" x2="416.094" y2="241.975" gradientUnits="userSpaceOnUse">
<stop stop-color="#B561D6"/>
<stop offset="1" stop-color="#8848A1"/>
</linearGradient>
<linearGradient id="paint10_linear_45_109" x1="371.963" y1="329.965" x2="388.12" y2="106.356" gradientUnits="userSpaceOnUse">
<stop stop-color="#B561D6"/>
<stop offset="1" stop-color="#8848A1"/>
</linearGradient>
<linearGradient id="paint11_linear_45_109" x1="393.372" y1="163.343" x2="367.144" y2="163.343" gradientUnits="userSpaceOnUse">
<stop stop-color="#8C5BBA"/>
<stop offset="1" stop-color="#8461A3"/>
</linearGradient>
<linearGradient id="paint12_linear_45_109" x1="336.819" y1="314.472" x2="371.433" y2="273.606" gradientUnits="userSpaceOnUse">
<stop stop-color="#56C4C5"/>
<stop offset="1" stop-color="#3A579A"/>
</linearGradient>
<linearGradient id="paint13_linear_45_109" x1="335.286" y1="237.727" x2="331.431" y2="271.79" gradientUnits="userSpaceOnUse">
<stop stop-color="#4650E8"/>
<stop offset="1" stop-color="#46B0E8"/>
</linearGradient>
<linearGradient id="paint14_linear_45_109" x1="368.671" y1="299.796" x2="340.51" y2="207.707" gradientUnits="userSpaceOnUse">
<stop stop-color="#4650E8"/>
<stop offset="1" stop-color="#46B0E8"/>
</linearGradient>
<linearGradient id="paint15_linear_45_109" x1="312.2" y1="405.541" x2="338.599" y2="364.584" gradientUnits="userSpaceOnUse">
<stop stop-color="#BFCFFF"/>
<stop offset="1" stop-color="#7994DD"/>
</linearGradient>
<linearGradient id="paint16_linear_45_109" x1="203.036" y1="335.194" x2="229.426" y2="294.229" gradientUnits="userSpaceOnUse">
<stop stop-color="#BFCFFF"/>
<stop offset="1" stop-color="#7994DD"/>
</linearGradient>
<linearGradient id="paint17_linear_45_109" x1="390.654" y1="369.992" x2="254.459" y2="291.906" gradientUnits="userSpaceOnUse">
<stop stop-color="#E9EFFF"/>
<stop offset="1" stop-color="#C9D8FF"/>
</linearGradient>
<linearGradient id="paint18_linear_45_109" x1="332.339" y1="168.847" x2="189.909" y2="325.205" gradientUnits="userSpaceOnUse">
<stop stop-color="#BFCFFF"/>
<stop offset="1" stop-color="#7994DD"/>
</linearGradient>
</defs>
</svg>
