<svg width="254" height="51" viewBox="0 0 254 51" fill="none" xmlns="http://www.w3.org/2000/svg">
<path d="M44.7727 17.8822C48.1818 17.8822 50.4545 15.4704 50.4545 11.8527C47.0455 11.8527 44.7727 14.2645 44.7727 17.8822Z" fill="#3BAF3D"/>
<path fill-rule="evenodd" clip-rule="evenodd" d="M55 29.9411C55 22.4402 48.7562 17.7001 43.2395 21.5329L40.614 20.8617C35.4143 18.3652 30 22.9562 30 29.9411C30 36.601 35.5965 42 42.5 42C49.4035 42 55 36.601 55 29.9411ZM51.5569 32.6453C51.7092 31.9992 51.339 31.3445 50.7301 31.1829C50.1213 31.0214 49.5043 31.4142 49.3522 32.0603C48.8857 34.04 47.4991 35.5116 45.6335 36.0065C45.0247 36.1681 44.6544 36.8227 44.8067 37.4689C44.9589 38.115 45.5758 38.5079 46.1847 38.3463C48.8645 37.6353 50.887 35.4891 51.5569 32.6453Z" fill="#FF0E0E"/>
<path d="M43.2395 21.5329C41.9795 18.4061 42.198 15.0845 44.4399 12.7054L42.8328 11C40.1858 13.8089 39.7261 17.4846 40.614 20.8617L43.2395 21.5329Z" fill="#883D3D"/>
<path d="M58.7614 38V14.7273H64.3864V24.0682H73.5568V14.7273H79.1705V38H73.5568V28.6477H64.3864V38H58.7614ZM87.6193 38.2955C86.5057 38.2955 85.517 38.1098 84.6534 37.7386C83.7973 37.3598 83.1193 36.7917 82.6193 36.0341C82.1269 35.2689 81.8807 34.3106 81.8807 33.1591C81.8807 32.1894 82.0511 31.3712 82.392 30.7045C82.733 30.0379 83.2027 29.4962 83.8011 29.0795C84.3996 28.6629 85.089 28.3485 85.8693 28.1364C86.6496 27.9167 87.483 27.7689 88.3693 27.6932C89.3617 27.6023 90.161 27.5076 90.767 27.4091C91.3731 27.303 91.8125 27.1553 92.0852 26.9659C92.3655 26.7689 92.5057 26.4924 92.5057 26.1364V26.0795C92.5057 25.4962 92.3049 25.0455 91.9034 24.7273C91.5019 24.4091 90.9602 24.25 90.2784 24.25C89.5436 24.25 88.9527 24.4091 88.5057 24.7273C88.0587 25.0455 87.7746 25.4848 87.6534 26.0455L82.5284 25.8636C82.6799 24.803 83.0701 23.8561 83.6989 23.0227C84.3352 22.1818 85.2064 21.5227 86.3125 21.0455C87.4261 20.5606 88.7633 20.3182 90.3239 20.3182C91.4375 20.3182 92.464 20.4508 93.4034 20.7159C94.3428 20.9735 95.161 21.3523 95.858 21.8523C96.5549 22.3447 97.0928 22.9508 97.4716 23.6705C97.858 24.3902 98.0511 25.2121 98.0511 26.1364V38H92.8239V35.5682H92.6875C92.3769 36.1591 91.9792 36.6591 91.4943 37.0682C91.017 37.4773 90.4527 37.7841 89.8011 37.9886C89.1572 38.1932 88.4299 38.2955 87.6193 38.2955ZM89.3352 34.6591C89.9337 34.6591 90.4716 34.5379 90.9489 34.2955C91.4337 34.053 91.8201 33.7197 92.108 33.2955C92.3958 32.8636 92.5398 32.3636 92.5398 31.7955V30.1364C92.3807 30.2197 92.1875 30.2955 91.9602 30.3636C91.7405 30.4318 91.4981 30.4962 91.233 30.5568C90.9678 30.6174 90.6951 30.6705 90.4148 30.7159C90.1345 30.7614 89.8655 30.803 89.608 30.8409C89.0852 30.9242 88.6383 31.053 88.267 31.2273C87.9034 31.4015 87.6231 31.6288 87.4261 31.9091C87.2367 32.1818 87.142 32.5076 87.142 32.8864C87.142 33.4621 87.3466 33.9015 87.7557 34.2045C88.1723 34.5076 88.6989 34.6591 89.3352 34.6591ZM101.449 38V20.5455H106.847V23.7273H107.028C107.347 22.5758 107.866 21.7197 108.585 21.1591C109.305 20.5909 110.142 20.3068 111.097 20.3068C111.354 20.3068 111.619 20.3258 111.892 20.3636C112.165 20.3939 112.419 20.4432 112.653 20.5114V25.3409C112.388 25.25 112.04 25.178 111.608 25.125C111.184 25.072 110.805 25.0455 110.472 25.0455C109.813 25.0455 109.218 25.1932 108.688 25.4886C108.165 25.7765 107.752 26.1818 107.449 26.7045C107.153 27.2197 107.006 27.8258 107.006 28.5227V38H101.449ZM132.381 20.5455L126.392 38H120.028L114.051 20.5455H119.903L123.119 32.5682H123.301L126.528 20.5455H132.381ZM142.108 38.3295C140.282 38.3295 138.706 37.9697 137.381 37.25C136.063 36.5227 135.047 35.4886 134.335 34.1477C133.631 32.7992 133.278 31.197 133.278 29.3409C133.278 27.5379 133.634 25.9621 134.347 24.6136C135.059 23.2576 136.062 22.2045 137.358 21.4545C138.653 20.697 140.18 20.3182 141.938 20.3182C143.18 20.3182 144.316 20.5114 145.347 20.8977C146.377 21.2841 147.267 21.8561 148.017 22.6136C148.767 23.3712 149.35 24.3068 149.767 25.4205C150.184 26.5265 150.392 27.7955 150.392 29.2273V30.6136H135.222V27.3864H145.222C145.214 26.7955 145.074 26.2689 144.801 25.8068C144.528 25.3447 144.153 24.9848 143.676 24.7273C143.206 24.4621 142.665 24.3295 142.051 24.3295C141.43 24.3295 140.873 24.4697 140.381 24.75C139.888 25.0227 139.498 25.3977 139.21 25.875C138.922 26.3447 138.771 26.8788 138.756 27.4773V30.7614C138.756 31.4735 138.896 32.0985 139.176 32.6364C139.456 33.1667 139.854 33.5795 140.369 33.875C140.884 34.1705 141.498 34.3182 142.21 34.3182C142.703 34.3182 143.15 34.25 143.551 34.1136C143.953 33.9773 144.297 33.7765 144.585 33.5114C144.873 33.2462 145.089 32.9205 145.233 32.5341L150.335 32.6818C150.123 33.8258 149.657 34.822 148.938 35.6705C148.225 36.5114 147.29 37.1667 146.131 37.6364C144.972 38.0985 143.631 38.3295 142.108 38.3295ZM168.469 25.875L163.366 26.0114C163.313 25.6477 163.17 25.3258 162.935 25.0455C162.7 24.7576 162.393 24.5341 162.014 24.375C161.643 24.2083 161.211 24.125 160.719 24.125C160.075 24.125 159.526 24.2538 159.071 24.5114C158.624 24.7689 158.404 25.1174 158.412 25.5568C158.404 25.8977 158.541 26.1932 158.821 26.4432C159.109 26.6932 159.62 26.8939 160.355 27.0455L163.719 27.6818C165.461 28.0152 166.757 28.5682 167.605 29.3409C168.461 30.1136 168.893 31.1364 168.901 32.4091C168.893 33.6061 168.537 34.6477 167.832 35.5341C167.135 36.4205 166.181 37.1098 164.969 37.6023C163.757 38.0871 162.37 38.3295 160.81 38.3295C158.317 38.3295 156.351 37.8182 154.912 36.7955C153.48 35.7652 152.662 34.3864 152.457 32.6591L157.946 32.5227C158.067 33.1591 158.382 33.6439 158.889 33.9773C159.397 34.3106 160.045 34.4773 160.832 34.4773C161.545 34.4773 162.124 34.3447 162.571 34.0795C163.018 33.8144 163.245 33.4621 163.253 33.0227C163.245 32.6288 163.071 32.3144 162.73 32.0795C162.389 31.8371 161.855 31.6477 161.128 31.5114L158.082 30.9318C156.332 30.6136 155.029 30.0265 154.173 29.1705C153.317 28.3068 152.893 27.2083 152.901 25.875C152.893 24.7083 153.204 23.7121 153.832 22.8864C154.461 22.053 155.355 21.4167 156.514 20.9773C157.673 20.5379 159.041 20.3182 160.616 20.3182C162.98 20.3182 164.844 20.8144 166.207 21.8068C167.571 22.7917 168.325 24.1477 168.469 25.875ZM181.489 20.5455V24.6364H170.477V20.5455H181.489ZM172.784 16.3636H178.341V32.5114C178.341 32.8523 178.394 33.1288 178.5 33.3409C178.614 33.5455 178.777 33.6932 178.989 33.7841C179.201 33.8674 179.455 33.9091 179.75 33.9091C179.962 33.9091 180.186 33.8902 180.42 33.8523C180.663 33.8068 180.845 33.7689 180.966 33.7386L181.807 37.75C181.542 37.8258 181.167 37.9205 180.682 38.0341C180.205 38.1477 179.633 38.2197 178.966 38.25C177.663 38.3106 176.545 38.1591 175.614 37.7955C174.689 37.4242 173.981 36.8485 173.489 36.0682C173.004 35.2879 172.769 34.3068 172.784 33.125V16.3636ZM184.699 38V14.7273H190.324V24.0682H199.494V14.7273H205.108V38H199.494V28.6477H190.324V38H184.699ZM219.898 30.4659V20.5455H225.443V38H220.148V34.75H219.966C219.58 35.8182 218.92 36.6667 217.989 37.2955C217.064 37.9167 215.947 38.2273 214.636 38.2273C213.447 38.2273 212.402 37.9545 211.5 37.4091C210.598 36.8636 209.898 36.1023 209.398 35.125C208.898 34.1402 208.644 32.9886 208.636 31.6705V20.5455H214.193V30.5795C214.201 31.5265 214.451 32.2727 214.943 32.8182C215.436 33.3636 216.106 33.6364 216.955 33.6364C217.508 33.6364 218.004 33.5152 218.443 33.2727C218.89 33.0227 219.242 32.6629 219.5 32.1932C219.765 31.7159 219.898 31.1402 219.898 30.4659ZM228.98 38V14.7273H234.537V23.5341H234.651C234.878 23.0038 235.2 22.4924 235.616 22C236.041 21.5076 236.579 21.1061 237.23 20.7955C237.889 20.4773 238.677 20.3182 239.594 20.3182C240.806 20.3182 241.938 20.6364 242.991 21.2727C244.052 21.9091 244.908 22.8902 245.56 24.2159C246.211 25.5417 246.537 27.2311 246.537 29.2841C246.537 31.2614 246.223 32.9167 245.594 34.25C244.973 35.5833 244.132 36.5833 243.071 37.25C242.018 37.9167 240.848 38.25 239.56 38.25C238.681 38.25 237.92 38.1061 237.276 37.8182C236.632 37.5303 236.09 37.1515 235.651 36.6818C235.219 36.2121 234.885 35.7083 234.651 35.1705H234.48V38H228.98ZM234.423 29.2727C234.423 30.2121 234.548 31.0303 234.798 31.7273C235.056 32.4242 235.423 32.9659 235.901 33.3523C236.385 33.7311 236.965 33.9205 237.639 33.9205C238.321 33.9205 238.901 33.7311 239.378 33.3523C239.855 32.9659 240.215 32.4242 240.457 31.7273C240.707 31.0303 240.832 30.2121 240.832 29.2727C240.832 28.3333 240.707 27.5189 240.457 26.8295C240.215 26.1402 239.855 25.6061 239.378 25.2273C238.908 24.8485 238.329 24.6591 237.639 24.6591C236.957 24.6591 236.378 24.8447 235.901 25.2159C235.423 25.5871 235.056 26.1174 234.798 26.8068C234.548 27.4962 234.423 28.3182 234.423 29.2727Z" fill="#FDF0E4"/>
<path d="M18.4071 13.8221L25.7354 13.9653L27.984 8.32779C28.2927 7.55909 27.7521 6.64468 27.0193 6.63036C26.6987 6.6241 26.4262 6.77372 26.2245 7.05385L23.8253 10.3383L23.0653 5.5718C22.965 5.0017 22.5464 4.58034 22.0193 4.54422L21.8819 4.54153C21.3781 4.53169 20.9497 4.96234 20.8668 5.52886L20.2528 10.2686L17.7054 6.88746C17.5183 6.62556 17.1953 6.4643 16.8972 6.43266C16.3018 6.42103 15.8525 6.98039 15.8845 7.57498C15.8869 7.72997 15.9125 7.91124 15.984 8.09341L18.4071 13.8221Z" fill="#3BAF3D"/>
<path d="M25.6449 16.5782L18.5457 16.4395C16.5762 16.401 15.0965 18.4381 15.542 20.6161L15.8647 22.2493L22.4143 22.3772C22.8265 22.3853 23.1527 22.7532 23.1598 23.2182L23.1686 23.7865C23.1757 24.2515 22.8606 24.6068 22.4484 24.5988L16.2877 24.4526L18.968 37.9854L22.7237 38.0587C23.1359 38.0668 23.4621 38.4347 23.4692 38.8997L23.4772 39.4163C23.4843 39.8813 23.1692 40.2367 22.757 40.2286L19.4135 40.1633L20.9796 48.2253C21.3761 50.1957 23.8494 50.244 24.1857 48.2879L26.8277 32.4833L22.4308 32.3974C22.0186 32.3894 21.6924 32.0215 21.6853 31.5565L21.6765 30.9882C21.6694 30.5232 21.9845 30.1678 22.3967 30.1759L27.16 30.2689L28.7553 20.8483C29.1342 18.6865 27.6144 16.6166 25.6449 16.5782Z" fill="#FF6B00"/>
</svg>
