<svg width="80" height="80" viewBox="0 0 80 80" fill="none" xmlns="http://www.w3.org/2000/svg">
<g style="mix-blend-mode:plus-darker">
<rect width="80" height="80" rx="40" fill="#DAE4FF"/>
<rect x="10" y="10" width="60" height="60" rx="30" fill="#B6DAFF"/>
<path d="M31.7904 39.5C27.5332 39.5 24.082 42.9511 24.082 47.2083C24.082 51.4655 27.5332 54.9167 31.7904 54.9167C36.0476 54.9167 39.4987 51.4655 39.4987 47.2083C39.4987 42.9511 36.0476 39.5 31.7904 39.5ZM29.6093 50.9275C28.7579 50.9275 28.0676 50.2372 28.0676 49.3858C28.0676 48.5344 28.7579 47.8441 29.6093 47.8441C30.4607 47.8441 31.151 48.5344 31.151 49.3858C31.15 50.2368 30.4603 50.9265 29.6093 50.9275Z" fill="#A448FF"/>
<path d="M54.4665 31.0735L52.2858 28.8928L54.4635 26.715C55.0695 26.1171 55.0761 25.1411 54.4782 24.535C53.8803 23.9289 52.9043 23.9224 52.2983 24.5203C52.2933 24.5252 52.2884 24.5301 52.2835 24.535L36.0366 40.7819C36.9022 41.3549 37.6436 42.0962 38.2167 42.9618L45.745 35.4336L47.925 37.6136L47.9255 37.6141C48.5286 38.2146 49.5042 38.2127 50.105 37.6099C50.7046 37.0083 50.7046 36.0351 50.105 35.4336L47.925 33.2535L50.1057 31.0728L52.2866 33.2535C52.8924 33.8517 53.8684 33.8455 54.4666 33.2397C55.0593 32.6393 55.0593 31.6739 54.4665 31.0735Z" fill="#A448FF"/>
<path d="M50.105 37.6099C49.5042 38.2127 48.5286 38.2146 47.9255 37.6141L49.4615 39.1442L55.8654 32.3846L54.4665 31.0735C55.0593 31.6739 55.0593 32.6393 54.4666 33.2397C53.8684 33.8455 52.8924 33.8517 52.2866 33.2535L50.105 35.4336C50.7046 36.0351 50.7046 37.0083 50.105 37.6099Z" fill="#A448FF"/>
</g>
</svg>
