<svg width="1070" height="971" viewBox="0 0 1070 971" fill="none" xmlns="http://www.w3.org/2000/svg">
<rect x="296.293" width="873" height="638.09" rx="30" transform="rotate(27.6678 296.293 0)" fill="#3BAF3D"/>
<path d="M233.121 347.028L244.691 333.24" stroke="white" stroke-width="2" stroke-linecap="round" stroke-linejoin="round"/>
<path d="M239.027 346.934L250.597 333.146" stroke="white" stroke-width="2" stroke-linecap="round" stroke-linejoin="round"/>
<path d="M292.32 609.647L312.42 585.693" stroke="white" stroke-width="2" stroke-linecap="round" stroke-linejoin="round"/>
<path d="M302.58 609.484L322.68 585.529" stroke="white" stroke-width="2" stroke-linecap="round" stroke-linejoin="round"/>
<path d="M592 326C592 330.971 596.029 335 601 335C605.971 335 610 330.971 610 326C610 321.029 605.971 317 601 317C596.029 317 592 321.029 592 326Z" stroke="white" stroke-width="2" stroke-linecap="round" stroke-linejoin="round"/>
<path d="M287 298.134C287 303.104 291.029 307.134 296 307.134C300.971 307.134 305 303.104 305 298.134C305 293.163 300.971 289.134 296 289.134C291.029 289.134 287 293.163 287 298.134Z" stroke="white" stroke-width="2" stroke-linecap="round" stroke-linejoin="round"/>
<path d="M635.625 695.634C635.625 703.297 641.837 709.509 649.5 709.509C657.163 709.509 663.375 703.297 663.375 695.634C663.375 687.971 657.163 681.759 649.5 681.759C641.837 681.759 635.625 687.971 635.625 695.634Z" stroke="white" stroke-width="2" stroke-linecap="round" stroke-linejoin="round"/>
<g clip-path="url(#clip0_954_267)">
<path d="M582.375 341.5C582.375 343.778 584.222 345.625 586.5 345.625C588.778 345.625 590.625 343.778 590.625 341.5C590.625 339.222 588.778 337.375 586.5 337.375C584.222 337.375 582.375 339.222 582.375 341.5Z" stroke="white" stroke-width="2" stroke-linecap="round" stroke-linejoin="round"/>
</g>
<path d="M189 290.134C189 293.448 191.686 296.134 195 296.134C198.314 296.134 201 293.448 201 290.134C201 286.82 198.314 284.134 195 284.134C191.686 284.134 189 286.82 189 290.134Z" stroke="white" stroke-width="2" stroke-linecap="round" stroke-linejoin="round"/>
<g clip-path="url(#clip1_954_267)">
<path d="M313.25 340.134C313.25 342.205 314.929 343.884 317 343.884C319.071 343.884 320.75 342.205 320.75 340.134C320.75 338.063 319.071 336.384 317 336.384C314.929 336.384 313.25 338.063 313.25 340.134Z" stroke="white" stroke-width="2" stroke-linecap="round" stroke-linejoin="round"/>
</g>
<g clip-path="url(#clip2_954_267)">
<path d="M470.75 331.134C470.75 334.033 473.101 336.384 476 336.384C478.899 336.384 481.25 334.033 481.25 331.134C481.25 328.234 478.899 325.884 476 325.884C473.101 325.884 470.75 328.234 470.75 331.134Z" stroke="white" stroke-width="2" stroke-linecap="round" stroke-linejoin="round"/>
</g>
<g clip-path="url(#clip3_954_267)">
<path d="M543.75 627.134C543.75 630.033 546.101 632.384 549 632.384C551.899 632.384 554.25 630.033 554.25 627.134C554.25 624.234 551.899 621.884 549 621.884C546.101 621.884 543.75 624.234 543.75 627.134Z" stroke="white" stroke-width="2" stroke-linecap="round" stroke-linejoin="round"/>
</g>
<path d="M102.25 533.134C102.25 536.862 105.272 539.884 109 539.884C112.728 539.884 115.75 536.862 115.75 533.134C115.75 529.406 112.728 526.384 109 526.384C105.272 526.384 102.25 529.406 102.25 533.134Z" stroke="white" stroke-width="2" stroke-linecap="round" stroke-linejoin="round"/>
<g clip-path="url(#clip4_954_267)">
<path d="M254.125 512.634C254.125 514.498 255.636 516.009 257.5 516.009C259.364 516.009 260.875 514.498 260.875 512.634C260.875 510.77 259.364 509.259 257.5 509.259C255.636 509.259 254.125 510.77 254.125 512.634Z" stroke="white" stroke-width="2" stroke-linecap="round" stroke-linejoin="round"/>
</g>
<g clip-path="url(#clip5_954_267)">
<path d="M167.827 572.258C165.852 574.258 164.864 575.26 164.713 576.253C164.582 577.119 164.824 578 165.38 578.677C166.017 579.453 167.376 579.808 170.094 580.518L184.605 584.308C187.323 585.018 188.682 585.373 189.617 585.007C190.433 584.688 191.076 584.039 191.385 583.219C191.739 582.279 191.367 580.922 190.622 578.211L186.65 563.755C185.906 561.044 185.533 559.689 184.748 559.062C184.064 558.515 183.179 558.283 182.315 558.426C181.324 558.589 180.337 559.589 178.363 561.588L167.827 572.258Z" stroke="white" stroke-width="2" stroke-linecap="round" stroke-linejoin="round"/>
</g>
<g clip-path="url(#clip6_954_267)">
<path d="M536.912 717.684C534.182 718.354 532.816 718.689 532.167 719.456C531.601 720.125 531.347 721.003 531.465 721.871C531.601 722.865 532.573 723.88 534.517 725.908L544.894 736.736C546.838 738.765 547.809 739.779 548.797 739.957C549.66 740.113 550.547 739.896 551.24 739.359C552.034 738.744 552.427 737.393 553.213 734.694L557.4 720.299C558.186 717.599 558.578 716.249 558.238 715.304C557.942 714.48 557.309 713.82 556.498 713.488C555.568 713.109 554.203 713.443 551.475 714.112L536.912 717.684Z" stroke="white" stroke-width="2" stroke-linecap="round" stroke-linejoin="round"/>
</g>
<path d="M384.158 312.638C381.397 311.844 380.015 311.448 379.051 311.798C378.209 312.104 377.537 312.752 377.202 313.582C376.816 314.533 377.163 315.926 377.855 318.713L381.553 333.586C382.245 336.373 382.591 337.766 383.377 338.426C384.062 339.002 384.959 339.26 385.846 339.136C386.863 338.994 387.898 337.997 389.966 336.003L400.995 325.368C403.063 323.374 404.096 322.376 404.275 321.366C404.431 320.484 404.206 319.577 403.655 318.871C403.024 318.062 401.644 317.665 398.885 316.872L384.158 312.638Z" stroke="white" stroke-width="2" stroke-linecap="round" stroke-linejoin="round"/>
<path d="M660.397 335.01L655.376 345.467C654.891 346.477 654.649 346.981 654.66 347.461C654.67 347.883 654.813 348.292 655.069 348.628C655.361 349.009 655.865 349.251 656.873 349.735L667.335 354.759C668.343 355.243 668.847 355.485 669.327 355.474C669.749 355.464 670.158 355.32 670.494 355.064C670.875 354.773 671.117 354.269 671.601 353.261L676.625 342.798C677.109 341.791 677.351 341.286 677.34 340.806C677.33 340.384 677.186 339.976 676.929 339.64C676.638 339.258 676.134 339.016 675.124 338.531L664.667 333.51C663.658 333.025 663.152 332.783 662.672 332.794C662.25 332.804 661.842 332.947 661.506 333.204C661.125 333.495 660.882 334 660.397 335.01Z" stroke="white" stroke-width="2" stroke-linecap="round" stroke-linejoin="round"/>
<g clip-path="url(#clip7_954_267)">
<path d="M397.723 658.927L411.372 672.176C412.691 673.456 413.349 674.094 414.101 674.327C414.763 674.531 415.473 674.521 416.129 674.298C416.873 674.043 417.512 673.385 418.789 672.069L432.046 658.412C433.323 657.096 433.961 656.439 434.193 655.687C434.397 655.025 434.387 654.314 434.163 653.658C433.909 652.914 433.251 652.275 431.935 650.999L418.278 637.742C416.963 636.465 416.304 635.826 415.552 635.594C414.89 635.39 414.18 635.402 413.525 635.625C412.78 635.88 412.141 636.538 410.861 637.856L397.612 651.506C396.333 652.824 395.692 653.483 395.46 654.236C395.256 654.898 395.267 655.607 395.491 656.262C395.745 657.007 396.404 657.647 397.723 658.927Z" stroke="white" stroke-width="2" stroke-linecap="round" stroke-linejoin="round"/>
</g>
<path d="M414.517 562.134V544.679H426.278V547.722H418.207V551.881H425.673V554.924H418.207V559.091H426.312V562.134H414.517ZM432.178 549.043L434.582 553.62L437.045 549.043H440.769L436.977 555.588L440.871 562.134H437.164L434.582 557.608L432.042 562.134H428.292L432.178 555.588L428.428 549.043H432.178ZM442.925 567.043V549.043H446.505V551.242H446.667C446.826 550.89 447.056 550.532 447.357 550.168C447.664 549.799 448.062 549.492 448.55 549.248C449.045 548.998 449.658 548.873 450.391 548.873C451.346 548.873 452.227 549.123 453.033 549.623C453.84 550.117 454.485 550.864 454.968 551.864C455.451 552.858 455.692 554.106 455.692 555.606C455.692 557.066 455.457 558.299 454.985 559.304C454.519 560.304 453.883 561.063 453.076 561.58C452.275 562.091 451.377 562.347 450.383 562.347C449.678 562.347 449.079 562.231 448.585 561.998C448.096 561.765 447.695 561.472 447.383 561.12C447.07 560.762 446.832 560.401 446.667 560.037H446.556V567.043H442.925ZM446.479 555.588C446.479 556.367 446.587 557.046 446.803 557.625C447.019 558.205 447.332 558.657 447.741 558.981C448.15 559.299 448.647 559.458 449.232 559.458C449.823 559.458 450.323 559.296 450.732 558.972C451.141 558.642 451.451 558.188 451.661 557.608C451.877 557.023 451.985 556.35 451.985 555.588C451.985 554.833 451.88 554.168 451.67 553.594C451.46 553.02 451.15 552.571 450.741 552.248C450.332 551.924 449.829 551.762 449.232 551.762C448.641 551.762 448.141 551.918 447.732 552.231C447.329 552.543 447.019 552.986 446.803 553.56C446.587 554.134 446.479 554.81 446.479 555.588ZM461.744 544.679V562.134H458.113V544.679H461.744ZM470.567 562.39C469.243 562.39 468.098 562.108 467.132 561.546C466.172 560.978 465.43 560.188 464.908 559.177C464.385 558.159 464.124 556.981 464.124 555.64C464.124 554.287 464.385 553.106 464.908 552.094C465.43 551.077 466.172 550.287 467.132 549.725C468.098 549.157 469.243 548.873 470.567 548.873C471.891 548.873 473.033 549.157 473.993 549.725C474.959 550.287 475.703 551.077 476.226 552.094C476.749 553.106 477.01 554.287 477.01 555.64C477.01 556.981 476.749 558.159 476.226 559.177C475.703 560.188 474.959 560.978 473.993 561.546C473.033 562.108 471.891 562.39 470.567 562.39ZM470.584 559.577C471.186 559.577 471.689 559.407 472.092 559.066C472.496 558.719 472.8 558.248 473.004 557.651C473.214 557.054 473.32 556.375 473.32 555.614C473.32 554.853 473.214 554.174 473.004 553.577C472.8 552.981 472.496 552.509 472.092 552.162C471.689 551.816 471.186 551.642 470.584 551.642C469.976 551.642 469.464 551.816 469.05 552.162C468.641 552.509 468.331 552.981 468.121 553.577C467.916 554.174 467.814 554.853 467.814 555.614C467.814 556.375 467.916 557.054 468.121 557.651C468.331 558.248 468.641 558.719 469.05 559.066C469.464 559.407 469.976 559.577 470.584 559.577ZM479.371 562.134V549.043H482.891V551.327H483.027C483.266 550.515 483.666 549.901 484.229 549.486C484.791 549.066 485.439 548.856 486.172 548.856C486.354 548.856 486.55 548.867 486.76 548.89C486.97 548.912 487.155 548.944 487.314 548.983V552.205C487.143 552.154 486.908 552.108 486.607 552.069C486.305 552.029 486.03 552.009 485.78 552.009C485.246 552.009 484.768 552.125 484.348 552.358C483.933 552.586 483.604 552.904 483.359 553.313C483.121 553.722 483.001 554.194 483.001 554.728V562.134H479.371ZM494.548 562.39C493.201 562.39 492.042 562.117 491.07 561.571C490.104 561.02 489.36 560.242 488.837 559.236C488.315 558.225 488.053 557.029 488.053 555.648C488.053 554.302 488.315 553.12 488.837 552.103C489.36 551.086 490.096 550.293 491.045 549.725C491.999 549.157 493.119 548.873 494.403 548.873C495.266 548.873 496.07 549.012 496.815 549.29C497.565 549.563 498.218 549.975 498.775 550.526C499.337 551.077 499.775 551.77 500.087 552.606C500.4 553.435 500.556 554.407 500.556 555.52V556.517H489.502V554.267H497.138C497.138 553.745 497.025 553.282 496.798 552.878C496.57 552.475 496.255 552.159 495.852 551.932C495.454 551.699 494.991 551.583 494.462 551.583C493.911 551.583 493.423 551.711 492.996 551.966C492.576 552.216 492.246 552.554 492.008 552.981C491.769 553.401 491.647 553.87 491.641 554.387V556.526C491.641 557.174 491.761 557.733 491.999 558.205C492.244 558.677 492.587 559.04 493.031 559.296C493.474 559.552 493.999 559.679 494.607 559.679C495.011 559.679 495.38 559.623 495.715 559.509C496.05 559.395 496.337 559.225 496.576 558.998C496.815 558.77 496.996 558.492 497.121 558.162L500.479 558.384C500.309 559.191 499.96 559.895 499.431 560.498C498.908 561.094 498.232 561.56 497.403 561.895C496.579 562.225 495.627 562.39 494.548 562.39ZM511.557 562.134H507.602L513.628 544.679H518.384L524.401 562.134H520.446L516.074 548.668H515.938L511.557 562.134ZM511.31 555.273H520.651V558.154H511.31V555.273ZM530.064 544.679V562.134H526.433V544.679H530.064ZM536.603 544.679V562.134H532.972V544.679H536.603Z" fill="#3BAF3D"/>
<rect x="575" y="539.134" width="28" height="28" rx="14" fill="#3BAF3D"/>
<path d="M581.006 553.307H594.617M594.617 553.307L589.756 548.057M594.617 553.307L589.756 558.557" stroke="white" stroke-width="2" stroke-linecap="round" stroke-linejoin="round"/>
<defs>
<clipPath id="clip0_954_267">
<rect width="11" height="11" fill="white" transform="translate(581 336)"/>
</clipPath>
<clipPath id="clip1_954_267">
<rect width="10" height="10" fill="white" transform="translate(312 335.134)"/>
</clipPath>
<clipPath id="clip2_954_267">
<rect width="14" height="14" fill="white" transform="translate(469 324.134)"/>
</clipPath>
<clipPath id="clip3_954_267">
<rect width="14" height="14" fill="white" transform="translate(542 620.134)"/>
</clipPath>
<clipPath id="clip4_954_267">
<rect width="9" height="9" fill="white" transform="translate(253 508.134)"/>
</clipPath>
<clipPath id="clip5_954_267">
<rect width="37.0959" height="37.0959" fill="white" transform="translate(167.216 547.816) rotate(14.6373)"/>
</clipPath>
<clipPath id="clip6_954_267">
<rect width="37.0959" height="37.0959" fill="white" transform="translate(549.192 696.542) rotate(46.2204)"/>
</clipPath>
<clipPath id="clip7_954_267">
<rect width="39.3575" height="39.3575" fill="white" transform="translate(387 655.375) rotate(-45.8531)"/>
</clipPath>
</defs>
</svg>
